<?xml version="1.0" encoding="UTF-8"?>
<svg version="1.1" xmlns="http://www.w3.org/2000/svg" width="520" height="60">
<path d="M0 0 C5.53810669 0.03548034 11.0762262 0.06687497 16.61436564 0.09675264 C24.17301082 0.13799954 31.7315179 0.19081821 39.29003435 0.25105143 C42.07242328 0.27296201 44.8547914 0.29109592 47.63722903 0.30550623 C95.36596156 0.57669992 141.59755601 6.37456786 186.91413981 21.73255587 C187.98373942 22.0931711 189.05333903 22.45378633 190.15535074 22.8253293 C191.15598551 23.17369844 192.15662028 23.52206758 193.18757731 23.88099337 C194.07622477 24.1895627 194.96487223 24.49813204 195.8804484 24.81605196 C197.91413981 25.73255587 197.91413981 25.73255587 198.91413981 27.73255587 C199.90413981 28.06255587 200.89413981 28.39255587 201.91413981 28.73255587 C201.58413981 29.39255587 201.25413981 30.05255587 200.91413981 30.73255587 C200.25413981 30.73255587 199.59413981 30.73255587 198.91413981 30.73255587 C198.58413981 31.39255587 198.25413981 32.05255587 197.91413981 32.73255587 C196.1839152 33.46766329 196.1839152 33.46766329 193.94929606 34.15052462 C193.13219157 34.40753145 192.31508707 34.66453829 191.47322184 34.92933321 C190.20647623 35.32692842 190.20647623 35.32692842 188.91413981 35.73255587 C187.36920854 36.26465191 185.82621318 36.80240301 184.28523356 37.34583712 C139.08421956 53.01808969 92.59122817 57.72196087 45.03273064 58.06867146 C42.21835228 58.08973516 39.40400063 58.11367002 36.58964413 58.13745111 C27.44644104 58.21436251 18.30317048 58.27931819 9.1598559 58.34133911 C6.78769535 58.35756575 4.41553828 58.37423254 2.04338175 58.39103746 C-40.09170141 58.68879574 -82.22102101 58.84483408 -124.35626882 58.44977236 C-127.53501892 58.42052367 -130.71378216 58.39416652 -133.89256185 58.36835909 C-243.37414562 57.44427044 -243.37414562 57.44427044 -252.08586019 48.73255587 C-252.17451227 45.84821767 -252.20107315 42.98793429 -252.18351644 40.10364962 C-252.1821015 39.23941881 -252.18068655 38.37518801 -252.17922872 37.48476839 C-252.17361258 34.71316294 -252.16105738 31.94163707 -252.14836019 29.17005587 C-252.14334727 27.29570807 -252.138784 25.42135902 -252.13468832 23.54700899 C-252.12363791 18.94216043 -252.10636249 14.33737166 -252.08586019 9.73255587 C-239.6209714 5.49032206 -226.56646752 4.35622268 -213.52336019 3.10755587 C-211.63738119 2.92301851 -211.63738119 2.92301851 -209.7133016 2.73475313 C-182.73660503 0.27600151 -155.58888344 0.37578288 -128.52336019 0.10755587 C-127.43976721 0.09650694 -126.35617422 0.08545801 -125.23974508 0.07407427 C-83.49122483 -0.34719899 -41.74897727 -0.26839952 0 0 Z " fill="#848484" transform="translate(288.0858601927757,0.2674441337585449)"/>
<path d="M0 0 C2.29740365 0.00187216 4.59480771 0.00329227 6.89221191 0.00428772 C12.84970258 0.0080502 18.80716767 0.01782444 24.76464844 0.0289917 C30.87955377 0.03934309 36.99446337 0.04381431 43.109375 0.04882812 C55.04167772 0.0594544 66.97396171 0.07645231 78.90625 0.09765625 C78.90625 0.42765625 78.90625 0.75765625 78.90625 1.09765625 C74.45125 1.59265625 74.45125 1.59265625 69.90625 2.09765625 C72.46761221 4.65901846 73.57186331 4.39432482 77.1328125 4.51171875 C78.6796875 4.56972656 78.6796875 4.56972656 80.2578125 4.62890625 C81.87816406 4.6753125 81.87816406 4.6753125 83.53125 4.72265625 C84.61921875 4.76132813 85.7071875 4.8 86.828125 4.83984375 C89.52066165 4.93431872 92.21318757 5.01988056 94.90625 5.09765625 C94.57625 7.40765625 94.24625 9.71765625 93.90625 12.09765625 C93.24625 12.09765625 92.58625 12.09765625 91.90625 12.09765625 C91.52406233 13.75380282 91.19229898 15.42222649 90.90625 17.09765625 C91.23625 17.42765625 91.56625 17.75765625 91.90625 18.09765625 C91.90625 20.07765625 91.90625 22.05765625 91.90625 24.09765625 C83.65625 23.76765625 75.40625 23.43765625 66.90625 23.09765625 C66.90625 26.39765625 66.90625 29.69765625 66.90625 33.09765625 C75.15625 33.09765625 83.40625 33.09765625 91.90625 33.09765625 C91.90625 39.09765625 91.90625 39.09765625 90.59375 40.97265625 C88.90625 42.09765625 88.90625 42.09765625 85.90625 42.09765625 C85.57625 43.08765625 85.24625 44.07765625 84.90625 45.09765625 C82.44718963 44.62199859 79.98904007 44.14229573 77.53125 43.66015625 C76.83257812 43.52544922 76.13390625 43.39074219 75.4140625 43.25195312 C70.1328125 42.2109375 70.1328125 42.2109375 67.90625 41.09765625 C68.23625 42.41765625 68.56625 43.73765625 68.90625 45.09765625 C71.21625 45.42765625 73.52625 45.75765625 75.90625 46.09765625 C74.37916037 49.53360791 72.30697955 52.21678079 69.90625 55.09765625 C72.87625 55.42765625 75.84625 55.75765625 78.90625 56.09765625 C78.90625 56.42765625 78.90625 56.75765625 78.90625 57.09765625 C65.98536652 57.14466357 53.06450442 57.17986369 40.14355183 57.20128059 C34.13937097 57.21157618 28.13524995 57.22546347 22.13110352 57.24853516 C-6.013242 57.35379883 -34.01444879 57.13272604 -62.09375 55.09765625 C-63.20791794 55.01731644 -64.32208588 54.93697662 -65.47001648 54.85420227 C-99.88021341 52.31119284 -99.88021341 52.31119284 -104.09375 48.09765625 C-104.18240208 45.21331805 -104.20896296 42.35303467 -104.19140625 39.46875 C-104.1899913 38.6045192 -104.18857635 37.74028839 -104.18711853 36.84986877 C-104.18150239 34.07826333 -104.16894719 31.30673745 -104.15625 28.53515625 C-104.15123708 26.66080845 -104.14667381 24.7864594 -104.14257812 22.91210938 C-104.13152772 18.30726081 -104.1142523 13.70247204 -104.09375 9.09765625 C-91.62886121 4.85542244 -78.57435733 3.72132306 -65.53125 2.47265625 C-63.645271 2.2881189 -63.645271 2.2881189 -61.72119141 2.09985352 C-41.18551974 0.2281597 -20.60731705 -0.05048147 0 0 Z " fill="#8E8E8E" transform="translate(140.09375,0.90234375)"/>
<path d="M0 0 C9.1468952 -0.24003399 18.05216426 0.44135404 27.125 1.5625 C28.18430725 1.69212631 28.18430725 1.69212631 29.26501465 1.82437134 C56.24360309 5.18034902 82.27946827 11.18958441 108 20 C109.06234863 20.35916504 110.12469727 20.71833008 111.21923828 21.08837891 C112.22067871 21.43690918 113.22211914 21.78543945 114.25390625 22.14453125 C115.14537354 22.45366455 116.03684082 22.76279785 116.95532227 23.08129883 C119 24 119 24 120 26 C120.99 26.33 121.98 26.66 123 27 C122.67 27.66 122.34 28.32 122 29 C121.34 29 120.68 29 120 29 C119.67 29.66 119.34 30.32 119 31 C117.26977539 31.73510742 117.26977539 31.73510742 115.03515625 32.41796875 C114.21805176 32.67497559 113.40094727 32.93198242 112.55908203 33.19677734 C111.71458496 33.46184082 110.87008789 33.7269043 110 34 C108.45506873 34.53209604 106.91207337 35.06984714 105.37109375 35.61328125 C59.37230525 51.56214097 12.11111702 56.19688725 -36.28744745 56.10139394 C-40.05099457 56.09505851 -43.81454286 56.09454867 -47.57809448 56.09336853 C-54.67486242 56.0902848 -61.7716146 56.08211213 -68.86837566 56.07201904 C-76.96053535 56.06076496 -85.05269587 56.05532425 -93.14486146 56.05032361 C-109.76325014 56.03992636 -126.38162304 56.02238545 -143 56 C-143 55.67 -143 55.34 -143 55 C-130.625 54.505 -130.625 54.505 -118 54 C-117.34 50.37 -116.68 46.74 -116 43 C-115.67 43 -115.34 43 -115 43 C-114.875 49.625 -114.875 49.625 -116 53 C-114.80503906 52.89171875 -114.80503906 52.89171875 -113.5859375 52.78125 C-112.52632812 52.6884375 -111.46671875 52.595625 -110.375 52.5 C-109.33085937 52.4071875 -108.28671875 52.314375 -107.2109375 52.21875 C-104.12853212 52.00875645 -101.08834771 51.96290273 -98 52 C-98 50.68 -98 49.36 -98 48 C-102.29 48 -106.58 48 -111 48 C-111.33 47.34 -111.66 46.68 -112 46 C-109.56242587 45.97301578 -107.12515085 45.95316901 -104.6875 45.9375 C-103.99720703 45.92912109 -103.30691406 45.92074219 -102.59570312 45.91210938 C-99.4516975 45.89692094 -97.00579981 45.99806673 -94 47 C-93.505 46.01 -93.505 46.01 -93 45 C-93 45.99 -93 46.98 -93 48 C-91.68 48.33 -90.36 48.66 -89 49 C-89 49.66 -89 50.32 -89 51 C-89.99 51.495 -89.99 51.495 -91 52 C-85.39 52.66 -79.78 53.32 -74 54 C-73.505 53.01 -73.505 53.01 -73 52 C-73 52.66 -73 53.32 -73 54 C-72.01 54 -71.02 54 -70 54 C-70 53.34 -70 52.68 -70 52 C-68.2709226 51.97274659 -66.54171824 51.95349013 -64.8125 51.9375 C-63.84957031 51.92589844 -62.88664062 51.91429687 -61.89453125 51.90234375 C-59.14423487 51.99513378 -56.67520409 52.37888315 -54 53 C-55.1270922 48.78254599 -55.1270922 48.78254599 -57.6875 45.375 C-58.120625 44.92125 -58.55375 44.4675 -59 44 C-58.6875 41.8125 -58.6875 41.8125 -58 40 C-55.96166576 41.2739589 -53.96147874 42.61061923 -52 44 C-52 44.66 -52 45.32 -52 46 C-50.515 46.495 -50.515 46.495 -49 47 C-48.38125 47.680625 -47.7625 48.36125 -47.125 49.0625 C-45.1519944 51.18254127 -45.1519944 51.18254127 -42.5 51.5625 C-38.99818734 50.77459215 -38.13488892 48.8020417 -36 46 C-33.25 44.6875 -33.25 44.6875 -31 44 C-31 43.34 -31 42.68 -31 42 C-35.29 42 -39.58 42 -44 42 C-42.47005208 39.98177083 -40.94010417 37.96354167 -39.41015625 35.9453125 C-37.23946517 32.95084115 -36.84219809 31.15880466 -36.8125 27.5 C-36.79832031 26.7059375 -36.78414063 25.911875 -36.76953125 25.09375 C-36.80333697 22.77966683 -36.80333697 22.77966683 -39 21 C-39 19.68 -39 18.36 -39 17 C-40.32 16.67 -41.64 16.34 -43 16 C-42.67 15.34 -42.34 14.68 -42 14 C-42.99 13.505 -42.99 13.505 -44 13 C-31.42592935 12.23432587 -31.42592935 12.23432587 -27.9921875 14.078125 C-26.6875 15.4375 -26.6875 15.4375 -25 18 C-24.67 18.33 -24.34 18.66 -24 19 C-23.84417697 20.34015221 -23.74955858 21.68758903 -23.68359375 23.03515625 C-23.64169922 23.84404297 -23.59980469 24.65292969 -23.55664062 25.48632812 C-23.51732422 26.33646484 -23.47800781 27.18660156 -23.4375 28.0625 C-23.39431641 28.91650391 -23.35113281 29.77050781 -23.30664062 30.65039062 C-23.20023298 32.76672037 -23.09958269 34.88333813 -23 37 C-22.34 37 -21.68 37 -21 37 C-19.99545359 33.87474452 -20.14745508 32.12599804 -21 29 C-21.03786901 27.33376361 -21.04627845 25.66602403 -21 24 C-17.73086376 22.96884721 -15.13958652 23.0361016 -11.75 23.4375 C-10.85796875 23.53933594 -9.9659375 23.64117188 -9.046875 23.74609375 C-8.37140625 23.82988281 -7.6959375 23.91367187 -7 24 C-7 26.31 -7 28.62 -7 31 C-9.64 31 -12.28 31 -15 31 C-12.36 31.33 -9.72 31.66 -7 32 C-6.67 32.99 -6.34 33.98 -6 35 C-5.34 34.67 -4.68 34.34 -4 34 C-3.94593878 35.93719378 -3.90717975 37.87481921 -3.875 39.8125 C-3.85179687 40.89144531 -3.82859375 41.97039063 -3.8046875 43.08203125 C-4 46 -4 46 -6 49 C-8.625 49.1875 -8.625 49.1875 -11 49 C-11 49.66 -11 50.32 -11 51 C-7.7 50.34 -4.4 49.68 -1 49 C-1.66 48.34 -2.32 47.68 -3 47 C-2.01 46.67 -1.02 46.34 0 46 C0.33 33.46 0.66 20.92 1 8 C-0.65 8 -2.3 8 -4 8 C-4 7.34 -4 6.68 -4 6 C-5.98 5.34 -7.96 4.68 -10 4 C-9.67 3.01 -9.34 2.02 -9 1 C-6.03 1 -3.06 1 0 1 C0 0.67 0 0.34 0 0 Z " fill="#9C9C9C" transform="translate(367,2)"/>
<path d="M0 0 C3.63 0 7.26 0 11 0 C9.04676235 2.39271612 7.06650816 4.70732893 5 7 C4.41992188 7.65613281 3.83984375 8.31226563 3.2421875 8.98828125 C-1.62899176 13.91041426 -5.49576378 14.80658219 -12.36328125 14.9296875 C-15.10980894 14.87503289 -15.10980894 14.87503289 -18 16 C-17.37432129 16.02505615 -16.74864258 16.0501123 -16.10400391 16.07592773 C-13.27745381 16.19175273 -10.45124831 16.31453985 -7.625 16.4375 C-6.64015625 16.47681641 -5.6553125 16.51613281 -4.640625 16.55664062 C-3.22910156 16.61948242 -3.22910156 16.61948242 -1.7890625 16.68359375 C-0.91975098 16.72025146 -0.05043945 16.75690918 0.84521484 16.79467773 C3 17 3 17 5 18 C5 18.99 5 19.98 5 21 C6.98 21.495 6.98 21.495 9 22 C8.505 24.475 8.505 24.475 8 27 C7.01 27 6.02 27 5 27 C5 27.99 5 28.98 5 30 C6.32 29.67 7.64 29.34 9 29 C9 30.32 9 31.64 9 33 C3.23900697 34.16989449 -2.5190595 34.33204041 -8.375 34.5625 C-9.39722656 34.60568359 -10.41945313 34.64886719 -11.47265625 34.69335938 C-13.98165288 34.79887792 -16.49073943 34.90099213 -19 35 C-14.31602833 36.27243722 -10.30787428 37.13951676 -5.4375 37.125 C-0.95533562 37.46023113 0.97650573 38.35692931 3.9375 41.75 C4.98358086 43.14812731 6.00663467 44.56393925 7 46 C7.804375 46.99 8.60875 47.98 9.4375 49 C9.953125 49.66 10.46875 50.32 11 51 C7.37 51 3.74 51 0 51 C0.495 50.01 0.495 50.01 1 49 C1.66 49 2.32 49 3 49 C1.6565763 46.31315259 0.84437335 46.01073644 -2 45 C-4.92143212 44.76075759 -7.82136894 44.81186202 -10.75 44.875 C-11.54277344 44.88402344 -12.33554687 44.89304688 -13.15234375 44.90234375 C-15.10169281 44.92582988 -17.05088575 44.96169863 -19 45 C-14.71 45.33 -10.42 45.66 -6 46 C-6 47.32 -6 48.64 -6 50 C-11.96674616 51.32594359 -17.92583615 51.0884587 -24 51 C-24 49.02 -24 47.04 -24 45 C-24.144375 46.134375 -24.28875 47.26875 -24.4375 48.4375 C-25 52 -25 52 -26 53 C-27.85369611 53.08737645 -29.71067541 53.10698153 -31.56640625 53.09765625 C-32.69111328 53.09443359 -33.81582031 53.09121094 -34.97460938 53.08789062 C-36.15861328 53.07951172 -37.34261719 53.07113281 -38.5625 53.0625 C-39.75037109 53.05798828 -40.93824219 53.05347656 -42.16210938 53.04882812 C-45.10812226 53.03699675 -48.05403681 53.02051287 -51 53 C-51 53.66 -51 54.32 -51 55 C-52.65 55 -54.3 55 -56 55 C-56 54.34 -56 53.68 -56 53 C-59.3 53 -62.6 53 -66 53 C-63.75421558 49.59260295 -61.48862878 46.23521742 -59 43 C-61.31 42.67 -63.62 42.34 -66 42 C-66.33 40.68 -66.66 39.36 -67 38 C-61.39 38.99 -55.78 39.98 -50 41 C-49.67 40.34 -49.34 39.68 -49 39 C-48.175 38.5875 -47.35 38.175 -46.5 37.75 C-43.67649412 36.17845358 -43.67649412 36.17845358 -43.1875 32.8125 C-43.125625 31.884375 -43.06375 30.95625 -43 30 C-43.78632813 30.17402344 -44.57265625 30.34804688 -45.3828125 30.52734375 C-49.95628272 31.12495703 -54.28529766 30.8631808 -58.875 30.5625 C-59.75414062 30.51029297 -60.63328125 30.45808594 -61.5390625 30.40429688 C-63.69307499 30.27552439 -65.84659659 30.13858537 -68 30 C-68 26.7 -68 23.4 -68 20 C-65.14576808 19.97281684 -62.29179985 19.95307295 -59.4375 19.9375 C-58.63763672 19.92912109 -57.83777344 19.92074219 -57.01367188 19.91210938 C-52.22836896 19.89257753 -47.71854949 20.19562982 -43 21 C-43.20625 19.72125 -43.4125 18.4425 -43.625 17.125 C-43.9765625 14.9453125 -43.9765625 14.9453125 -44 13 C-43.34 12.34 -42.68 11.68 -42 11 C-40.68 12.32 -39.36 13.64 -38 15 C-37.67 12.69 -37.34 10.38 -37 8 C-34.66836622 7.32741333 -32.3347961 6.66152556 -30 6 C-29.2575 5.7525 -28.515 5.505 -27.75 5.25 C-26 5 -26 5 -23 7 C-20.75692237 7.21640851 -20.75692237 7.21640851 -18.2890625 7.046875 C-17.37382812 7.00433594 -16.45859375 6.96179688 -15.515625 6.91796875 C-14.56171875 6.86253906 -13.6078125 6.80710937 -12.625 6.75 C-11.20574219 6.69005859 -11.20574219 6.69005859 -9.7578125 6.62890625 C-5.15127909 6.38952179 -1.17391645 6.16688429 3 4 C3 3.34 3 2.68 3 2 C2.01 1.67 1.02 1.34 0 1 C0 0.67 0 0.34 0 0 Z " fill="#6A6969" transform="translate(275,4)"/>
<path d="M0 0 C34.32 0 68.64 0 104 0 C104 0.33 104 0.66 104 1 C99.545 1.495 99.545 1.495 95 2 C97.56136221 4.56136221 98.66561331 4.29666857 102.2265625 4.4140625 C103.7734375 4.47207031 103.7734375 4.47207031 105.3515625 4.53125 C106.97191406 4.57765625 106.97191406 4.57765625 108.625 4.625 C109.71296875 4.66367188 110.8009375 4.70234375 111.921875 4.7421875 C114.61441165 4.83666247 117.30693757 4.92222431 120 5 C119.67 7.31 119.34 9.62 119 12 C118.34 12 117.68 12 117 12 C116.61781233 13.65614657 116.28604898 15.32457024 116 17 C116.33 17.33 116.66 17.66 117 18 C117 19.98 117 21.96 117 24 C108.75 23.67 100.5 23.34 92 23 C92 26.3 92 29.6 92 33 C91.67 33 91.34 33 91 33 C90.505 27.555 90.505 27.555 90 22 C88.2675 22.144375 86.535 22.28875 84.75 22.4375 C83.28820312 22.55931641 83.28820312 22.55931641 81.796875 22.68359375 C79.12204618 22.89488621 79.12204618 22.89488621 77.12890625 23.59375 C73.77008973 24.23469847 70.53244299 23.55976299 67.1875 23.0625 C62.06585016 22.31709556 57.18041103 21.88487975 52 22 C52 21.34 52 20.68 52 20 C40.2420419 17.27825044 27.79226652 19.40104861 16 21 C16.33 21.99 16.66 22.98 17 24 C18.65 24.33 20.3 24.66 22 25 C20.68 26.32 19.36 27.64 18 29 C19.32 29.66 20.64 30.32 22 31 C21 32 21 32 18.4375 32.0625 C17.633125 32.041875 16.82875 32.02125 16 32 C16 33.32 16 34.64 16 36 C15.34 36 14.68 36 14 36 C14 35.01 14 34.02 14 33 C12.35 32.34 10.7 31.68 9 31 C8.67 28.69 8.34 26.38 8 24 C8.99 23.67 9.98 23.34 11 23 C10.85946128 20.37461716 10.71281053 17.74982573 10.5625 15.125 C10.52318359 14.37863281 10.48386719 13.63226563 10.44335938 12.86328125 C10.28426376 8.80013136 10.28426376 8.80013136 9 5 C10.98 4.01 12.96 3.02 15 2 C10.05 1.67 5.1 1.34 0 1 C0 0.67 0 0.34 0 0 Z " fill="#929292" transform="translate(115,1)"/>
<path d="M0 0 C1.65 0 3.3 0 5 0 C5 0.66 5 1.32 5 2 C34.37 2 63.74 2 94 2 C94 2.33 94 2.66 94 3 C85.42 3 76.84 3 68 3 C68 3.66 68 4.32 68 5 C76.25 5 84.5 5 93 5 C93.495 6.98 93.495 6.98 94 9 C92.68870078 10.35500919 91.35308313 11.68671343 90 13 C89.26259783 15.51948778 89.26259783 15.51948778 89 18 C88.505 19.485 88.505 19.485 88 21 C85.69 20.67 83.38 20.34 81 20 C81.66 19.34 82.32 18.68 83 18 C81.515 17.505 81.515 17.505 80 17 C79.87625 16.195625 79.7525 15.39125 79.625 14.5625 C79.315625 13.2940625 79.315625 13.2940625 79 12 C78.01 11.505 78.01 11.505 77 11 C77.495 13.97 77.495 13.97 78 17 C76.68 17.33 75.36 17.66 74 18 C74.99 21.465 74.99 21.465 76 25 C74.35 25.33 72.7 25.66 71 26 C71 27.98 71 29.96 71 32 C71.62648438 31.83242188 72.25296875 31.66484375 72.8984375 31.4921875 C73.71570313 31.28851562 74.53296875 31.08484375 75.375 30.875 C76.18710937 30.66617187 76.99921875 30.45734375 77.8359375 30.2421875 C78.55007813 30.16226562 79.26421875 30.08234375 80 30 C80.99 30.99 80.99 30.99 82 32 C81.195625 32.45375 80.39125 32.9075 79.5625 33.375 C76.91143428 34.74725665 76.91143428 34.74725665 76 37 C75.34 37 74.68 37 74 37 C74 38.32 74 39.64 74 41 C75.98 41.495 75.98 41.495 78 42 C78 43.98 78 45.96 78 48 C78.66 48 79.32 48 80 48 C80 46.02 80 44.04 80 42 C81.65 41.34 83.3 40.68 85 40 C85 39.34 85 38.68 85 38 C90.42055039 36.83086168 92.39772729 37.12357956 97 40 C100.70893908 40.25099867 100.70893908 40.25099867 104 40 C104 40.66 104 41.32 104 42 C103.34 42 102.68 42 102 42 C102 42.66 102 43.32 102 44 C106.95 44 111.9 44 117 44 C117 44.66 117 45.32 117 46 C116.21625 46.2475 115.4325 46.495 114.625 46.75 C111.60938271 48.18600823 111.21785344 49.00220692 110 52 C108 54 108 54 105.125 54.4375 C102 54 102 54 99.75 51.5625 C99.1725 50.716875 98.595 49.87125 98 49 C97.34 48.67 96.68 48.34 96 48 C96 47.34 96 46.68 96 46 C95.38125 45.690625 94.7625 45.38125 94.125 45.0625 C92.75 44.375 91.375 43.6875 90 43 C90.42546713 45.46770934 90.68695262 46.71199641 92.5625 48.4375 C94 50 94 50 94 55 C88.72 54.67 83.44 54.34 78 54 C78 54.66 78 55.32 78 56 C74.41296626 56.85707886 71.5832128 56.93515373 68 56 C63.35071586 52.77491999 59.53111027 48.38051824 56 44 C56 43.34 56 42.68 56 42 C55.31035156 42.02320313 54.62070312 42.04640625 53.91015625 42.0703125 C47.57831021 42.19191174 42.12530071 41.60663625 36 40 C36.495 39.01 36.495 39.01 37 38 C46.24 37.67 55.48 37.34 65 37 C65 35.68 65 34.36 65 33 C63.68 33.33 62.36 33.66 61 34 C61 33.01 61 32.02 61 31 C61.99 30.67 62.98 30.34 64 30 C64 28.68 64 27.36 64 26 C62.515 25.505 62.515 25.505 61 25 C61 24.01 61 23.02 61 22 C53.41 21.67 45.82 21.34 38 21 C37.505 20.01 37.505 20.01 37 19 C38.0621875 18.93683594 39.124375 18.87367187 40.21875 18.80859375 C50.91887254 17.97669044 50.91887254 17.97669044 59.44921875 11.8203125 C59.96097656 11.21960937 60.47273438 10.61890625 61 10 C61.99331025 9.01404761 62.9924854 8.03393281 64 7.0625 C64.66 6.381875 65.32 5.70125 66 5 C63.03 5 60.06 5 57 5 C57.99 5.495 57.99 5.495 59 6 C59 6.66 59 7.32 59 8 C57.68 8.33 56.36 8.66 55 9 C54.67 10.32 54.34 11.64 54 13 C54 12.01 54 11.02 54 10 C53.34 10.33 52.68 10.66 52 11 C50.55151418 11.08342159 49.09929131 11.10732861 47.6484375 11.09765625 C46.37226563 11.09282227 46.37226563 11.09282227 45.0703125 11.08789062 C44.18085938 11.07951172 43.29140625 11.07113281 42.375 11.0625 C41.02921875 11.05573242 41.02921875 11.05573242 39.65625 11.04882812 C37.43743352 11.03702591 35.21874982 11.02056155 33 11 C32.67 11.66 32.34 12.32 32 13 C32 12.01 32 11.02 32 10 C30.02 10.33 28.04 10.66 26 11 C25.67 14.3 25.34 17.6 25 21 C24.67 21 24.34 21 24 21 C24 17.7 24 14.4 24 11 C23.34 11 22.68 11 22 11 C22 14.3 22 17.6 22 21 C21.67 21 21.34 21 21 21 C20.67 18.03 20.34 15.06 20 12 C19.67 14.64 19.34 17.28 19 20 C18.34 19.67 17.68 19.34 17 19 C17 18.34 17 17.68 17 17 C13.2236068 16.7018576 13.2236068 16.7018576 11 18 C11.33 16.02 11.66 14.04 12 12 C12.99 12.33 13.98 12.66 15 13 C15 11.02 15 9.04 15 7 C14.34926514 6.9906543 13.69853027 6.98130859 13.02807617 6.97167969 C10.08044494 6.91800507 7.13440607 6.8343545 4.1875 6.75 C2.65125977 6.72873047 2.65125977 6.72873047 1.08398438 6.70703125 C0.10107422 6.67480469 -0.88183594 6.64257812 -1.89453125 6.609375 C-2.80050049 6.58842773 -3.70646973 6.56748047 -4.63989258 6.54589844 C-7 6 -7 6 -10 2 C-6.7 2 -3.4 2 0 2 C0 1.34 0 0.68 0 0 Z " fill="#848484" transform="translate(219,0)"/>
<path d="M0 0 C1.56096313 -0.01171795 3.12188054 -0.03246632 4.68261719 -0.06152344 C6.98024673 -0.10398428 9.27673546 -0.1203105 11.57470703 -0.13061523 C12.61682343 -0.15687737 12.61682343 -0.15687737 13.67999268 -0.18367004 C17.04191624 -0.16851002 18.78390223 0.08814876 21.50244141 2.13330078 C23.60644182 5.05534025 23.46384047 6.985722 23.30908203 10.54516602 C23.27298828 11.62282227 23.23689453 12.70047852 23.19970703 13.81079102 C23.15330078 14.63063477 23.10689453 15.45047852 23.05908203 16.29516602 C26.35908203 16.29516602 29.65908203 16.29516602 33.05908203 16.29516602 C33.05908203 17.28516602 33.05908203 18.27516602 33.05908203 19.29516602 C29.75908203 19.29516602 26.45908203 19.29516602 23.05908203 19.29516602 C23.10548828 20.11500977 23.15189453 20.93485352 23.19970703 21.77954102 C23.25384766 23.39602539 23.25384766 23.39602539 23.30908203 25.04516602 C23.35548828 26.11250977 23.40189453 27.17985352 23.44970703 28.27954102 C23.05908203 31.29516602 23.05908203 31.29516602 21.56591797 33.45703125 C18.02803734 36.05117843 14.77449532 35.81380707 10.55908203 35.72094727 C9.31179321 35.71601509 9.31179321 35.71601509 8.03930664 35.71098328 C5.37870258 35.6952523 2.719359 35.65128897 0.05908203 35.60766602 C-1.70002208 35.59616754 -3.45913829 35.58638449 -5.21826172 35.57836914 C-29.71584315 35.40770342 -29.71584315 35.40770342 -35.94091797 32.29516602 C-35.94091797 22.72516602 -35.94091797 13.15516602 -35.94091797 3.29516602 C-31.75419946 1.20180676 -29.44089681 0.93135894 -24.83154297 0.68969727 C-24.1329718 0.65278275 -23.43440063 0.61586823 -22.71466064 0.57783508 C-15.14700994 0.20602892 -7.57617037 0.03960234 0 0 Z " fill="#8F8F8F" transform="translate(87.94091796875,11.704833984375)"/>
<path d="M0 0 C9.44663277 -0.28178876 18.64453208 0.57049256 28 1.75 C29.07868851 1.88239075 29.07868851 1.88239075 30.1791687 2.01745605 C41.9089363 3.46199186 53.47245333 5.36673296 65 8 C64.34 8.33 63.68 8.66 63 9 C63 9.66 63 10.32 63 11 C63.99 11.33 64.98 11.66 66 12 C50.655 12.495 50.655 12.495 35 13 C35.495 20.425 35.495 20.425 36 28 C36.33 28 36.66 28 37 28 C37 31.96 37 35.92 37 40 C38.98 40 40.96 40 43 40 C43.99 40.33 44.98 40.66 46 41 C46.99 40.67 47.98 40.34 49 40 C50.33525717 39.92026524 51.67412083 39.89228662 53.01171875 39.90234375 C54.14770508 39.90717773 54.14770508 39.90717773 55.30664062 39.91210938 C56.48516602 39.92467773 56.48516602 39.92467773 57.6875 39.9375 C58.88342773 39.94426758 58.88342773 39.94426758 60.10351562 39.95117188 C62.06904257 39.9629415 64.03453085 39.98087652 66 40 C66 40.33 66 40.66 66 41 C65.07316406 41.04898438 64.14632812 41.09796875 63.19140625 41.1484375 C61.99386719 41.22320312 60.79632813 41.29796875 59.5625 41.375 C57.77005859 41.47941406 57.77005859 41.47941406 55.94140625 41.5859375 C54.97074219 41.72257812 54.00007813 41.85921875 53 42 C52.505 42.99 52.505 42.99 52 44 C46.33333333 44 40.66666667 44 35 44 C33.66431979 44.32380126 32.33076989 44.65657551 31 45 C30.67 45 30.34 45 30 45 C29.175 45.165 28.35 45.33 27.5 45.5 C25 46 25 46 24 46 C23.113125 46.350625 22.22625 46.70125 21.3125 47.0625 C17.7206803 48.07905274 15.58910191 47.85454807 12 47 C11.67 47.66 11.34 48.32 11 49 C10.01 49 9.02 49 8 49 C8 48.34 8 47.68 8 47 C6.68 47 5.36 47 4 47 C4 43.7 4 40.4 4 37 C5.7325 37.2784375 5.7325 37.2784375 7.5 37.5625 C14.67876432 38.39214853 21.82130007 37.54292689 29 37 C29 30.73 29 24.46 29 18 C20.75 18 12.5 18 4 18 C4 8 4 8 5 7 C0.05 6.01 -4.9 5.02 -10 4 C-9.67 3.01 -9.34 2.02 -9 1 C-6.03 1 -3.06 1 0 1 C0 0.67 0 0.34 0 0 Z M-4 6 C-1.03 6.495 -1.03 6.495 2 7 C2 20.53 2 34.06 2 48 C0.35 48 -1.3 48 -3 48 C-2.01 47.34 -1.02 46.68 0 46 C0.33767042 43.09843676 0.48908344 40.4000311 0.51171875 37.4921875 C0.52966995 36.65156769 0.54762115 35.81094788 0.56611633 34.94485474 C0.62038031 32.25495449 0.65416586 29.56523324 0.6875 26.875 C0.72065895 25.05336041 0.75514727 23.2317445 0.79101562 21.41015625 C0.87611572 16.94023305 0.94284956 12.47036441 1 8 C-0.65 8 -2.3 8 -4 8 C-4 7.34 -4 6.68 -4 6 Z " fill="#A3A3A3" transform="translate(367,2)"/>
<path d="M0 0 C8.24604228 1.27450102 16.05032863 3.36506855 24 5.875 C25.09828125 6.21402344 26.1965625 6.55304687 27.328125 6.90234375 C32.66316813 8.56480387 37.97308991 10.29373434 43.25 12.1328125 C44.14203125 12.4436377 45.0340625 12.75446289 45.953125 13.07470703 C48 14 48 14 49 16 C49.99 16.33 50.98 16.66 52 17 C51.67 17.66 51.34 18.32 51 19 C50.34 19 49.68 19 49 19 C48.67 19.66 48.34 20.32 48 21 C46.28515625 21.73071289 46.28515625 21.73071289 44.0625 22.41015625 C43.24652344 22.66684082 42.43054688 22.92352539 41.58984375 23.18798828 C40.73519531 23.45595215 39.88054687 23.72391602 39 24 C37.37317195 24.55587644 35.74816464 25.11710929 34.125 25.68359375 C23.18953173 29.44163574 12.315056 32.61241938 1 35 C1.33 34.01 1.66 33.02 2 32 C0.68 31.67 -0.64 31.34 -2 31 C-2 31.99 -2 32.98 -2 34 C-2.66 34 -3.32 34 -4 34 C-4 31.69 -4 29.38 -4 27 C-6.31 27 -8.62 27 -11 27 C-11 24.03 -11 21.06 -11 18 C-10.34 18 -9.68 18 -9 18 C-9 20.31 -9 22.62 -9 25 C-7.35 25 -5.7 25 -4 25 C-4 19.72 -4 14.44 -4 9 C-5.65 9 -7.3 9 -9 9 C-9 11.31 -9 13.62 -9 16 C-9.66 16.33 -10.32 16.66 -11 17 C-11 14.03 -11 11.06 -11 8 C-8.69 8 -6.38 8 -4 8 C-4 5.69 -4 3.38 -4 1 C-3.34 1 -2.68 1 -2 1 C-2 1.99 -2 2.98 -2 4 C-1.34 2.68 -0.68 1.36 0 0 Z " fill="#9F9F9F" transform="translate(438,12)"/>
<path d="M0 0 C-0.49113281 0.60714844 -0.98226562 1.21429688 -1.48828125 1.83984375 C-3.33406005 4.47735195 -3.24272074 5.84463035 -3 9 C-3 9.99 -3 10.98 -3 12 C-3.99 11.505 -3.99 11.505 -5 11 C-6.49062616 10.91529886 -7.98502722 10.89279078 -9.47802734 10.90234375 C-10.40594086 10.90564697 -11.33385437 10.9089502 -12.28988647 10.91235352 C-13.29508331 10.92065186 -14.30028015 10.9289502 -15.3359375 10.9375 C-16.36683502 10.94128662 -17.39773254 10.94507324 -18.45986938 10.94897461 C-22.8824745 10.96536655 -27.30498837 10.99345463 -31.72753906 11.02050781 C-34.95116755 11.03857002 -38.17478106 11.05068103 -41.3984375 11.0625 C-42.90016006 11.07494751 -42.90016006 11.07494751 -44.43222046 11.08764648 C-45.36643829 11.09094971 -46.30065613 11.09425293 -47.26318359 11.09765625 C-48.49323624 11.10551147 -48.49323624 11.10551147 -49.74813843 11.11352539 C-51.97287693 11.00136738 -53.86432106 10.6125462 -56 10 C-56.7425 9.814375 -57.485 9.62875 -58.25 9.4375 C-58.8275 9.293125 -59.405 9.14875 -60 9 C-61.07779838 12.50578806 -61.12917302 15.75430005 -61.1328125 19.41015625 C-61.13410156 20.64701172 -61.13539062 21.88386719 -61.13671875 23.15820312 C-61.13285156 24.44662109 -61.12898438 25.73503906 -61.125 27.0625 C-61.12886719 28.35478516 -61.13273437 29.64707031 -61.13671875 30.97851562 C-61.13542969 32.21408203 -61.13414063 33.44964844 -61.1328125 34.72265625 C-61.13168457 35.85453369 -61.13055664 36.98641113 -61.12939453 38.15258789 C-61.12630087 41.07582292 -61.12630087 41.07582292 -60 44 C-56.7 44.66 -53.4 45.32 -50 46 C-51.14725402 49.44176206 -51.90635745 50.22911202 -55 52 C-57.27416992 51.98925781 -57.27416992 51.98925781 -59.73046875 51.453125 C-61.05788086 51.1746875 -61.05788086 51.1746875 -62.41210938 50.890625 C-63.32798828 50.67921875 -64.24386719 50.4678125 -65.1875 50.25 C-66.11498047 50.0540625 -67.04246094 49.858125 -67.99804688 49.65625 C-74.82118056 48.17881944 -74.82118056 48.17881944 -76 47 C-76.08865208 44.1156618 -76.11521296 41.25537842 -76.09765625 38.37109375 C-76.0962413 37.50686295 -76.09482635 36.64263214 -76.09336853 35.75221252 C-76.08775239 32.98060708 -76.07519719 30.2090812 -76.0625 27.4375 C-76.05748708 25.5631522 -76.05292381 23.68880315 -76.04882812 21.81445312 C-76.03777772 17.20960456 -76.0205023 12.60481579 -76 8 C-52.59341154 0.03392645 -24.53940376 -0.74613052 0 0 Z " fill="#8A8A8A" transform="translate(112,2)"/>
<path d="M0 0 C1.32 0 2.64 0 4 0 C4.06058594 1.16917969 4.12117188 2.33835937 4.18359375 3.54296875 C4.26804034 5.09115614 4.35268625 6.63933268 4.4375 8.1875 C4.47681641 8.95642578 4.51613281 9.72535156 4.55664062 10.51757812 C4.73481311 13.71097731 4.94291801 16.72652877 5.59765625 19.86328125 C6 22 6 22 5 25 C5.08521741 26.89952346 5.23729084 28.79663573 5.4375 30.6875 C5.59025391 32.17830078 5.59025391 32.17830078 5.74609375 33.69921875 C5.82988281 34.45847656 5.91367188 35.21773437 6 36 C6.66 35.34 7.32 34.68 8 34 C8.495 36.475 8.495 36.475 9 39 C9.66 39 10.32 39 11 39 C11.04254356 40.99954746 11.04080783 43.00041636 11 45 C10 46 10 46 7.59155273 46.11352539 C6.54942627 46.10828857 5.5072998 46.10305176 4.43359375 46.09765625 C3.30888672 46.09443359 2.18417969 46.09121094 1.02539062 46.08789062 C-0.15861328 46.07951172 -1.34261719 46.07113281 -2.5625 46.0625 C-3.75037109 46.05798828 -4.93824219 46.05347656 -6.16210938 46.04882812 C-9.10812226 46.03699675 -12.05403681 46.02051287 -15 46 C-15 46.66 -15 47.32 -15 48 C-16.65 48 -18.3 48 -20 48 C-20 47.34 -20 46.68 -20 46 C-23.3 46 -26.6 46 -30 46 C-27.75421558 42.59260295 -25.48862878 39.23521742 -23 36 C-25.31 35.67 -27.62 35.34 -30 35 C-30.33 33.68 -30.66 32.36 -31 31 C-22.585 32.485 -22.585 32.485 -14 34 C-13.67 33.34 -13.34 32.68 -13 32 C-12.175 31.5875 -11.35 31.175 -10.5 30.75 C-7.67649412 29.17845358 -7.67649412 29.17845358 -7.1875 25.8125 C-7.125625 24.884375 -7.06375 23.95625 -7 23 C-7.78632813 23.17402344 -8.57265625 23.34804688 -9.3828125 23.52734375 C-13.95628272 24.12495703 -18.28529766 23.8631808 -22.875 23.5625 C-23.75414062 23.51029297 -24.63328125 23.45808594 -25.5390625 23.40429688 C-27.69307499 23.27552439 -29.84659659 23.13858537 -32 23 C-32 19.7 -32 16.4 -32 13 C-29.14576808 12.97281684 -26.29179985 12.95307295 -23.4375 12.9375 C-22.23770508 12.92493164 -22.23770508 12.92493164 -21.01367188 12.91210938 C-16.22836896 12.89257753 -11.71854949 13.19562982 -7 14 C-7.20625 12.72125 -7.4125 11.4425 -7.625 10.125 C-7.9765625 7.9453125 -7.9765625 7.9453125 -8 6 C-7.34 5.34 -6.68 4.68 -6 4 C-4.68 5.32 -3.36 6.64 -2 8 C-1.855625 6.865625 -1.71125 5.73125 -1.5625 4.5625 C-1 1 -1 1 0 0 Z " fill="#777777" transform="translate(239,11)"/>
<path d="M0 0 C1.56096313 -0.01171795 3.12188054 -0.03246632 4.68261719 -0.06152344 C6.98024673 -0.10398428 9.27673546 -0.1203105 11.57470703 -0.13061523 C12.61682343 -0.15687737 12.61682343 -0.15687737 13.67999268 -0.18367004 C17.04191624 -0.16851002 18.78390223 0.08814876 21.50244141 2.13330078 C23.60644182 5.05534025 23.46384047 6.985722 23.30908203 10.54516602 C23.27298828 11.62282227 23.23689453 12.70047852 23.19970703 13.81079102 C23.15330078 14.63063477 23.10689453 15.45047852 23.05908203 16.29516602 C26.35908203 16.29516602 29.65908203 16.29516602 33.05908203 16.29516602 C33.05908203 17.28516602 33.05908203 18.27516602 33.05908203 19.29516602 C29.75908203 19.29516602 26.45908203 19.29516602 23.05908203 19.29516602 C23.10548828 20.11500977 23.15189453 20.93485352 23.19970703 21.77954102 C23.25384766 23.39602539 23.25384766 23.39602539 23.30908203 25.04516602 C23.35548828 26.11250977 23.40189453 27.17985352 23.44970703 28.27954102 C23.05908203 31.29516602 23.05908203 31.29516602 21.56591797 33.45703125 C18.02803734 36.05117843 14.77449532 35.81380707 10.55908203 35.72094727 C9.31179321 35.71601509 9.31179321 35.71601509 8.03930664 35.71098328 C5.37870258 35.6952523 2.719359 35.65128897 0.05908203 35.60766602 C-1.70002208 35.59616754 -3.45913829 35.58638449 -5.21826172 35.57836914 C-29.71584315 35.40770342 -29.71584315 35.40770342 -35.94091797 32.29516602 C-35.94091797 22.72516602 -35.94091797 13.15516602 -35.94091797 3.29516602 C-31.75419946 1.20180676 -29.44089681 0.93135894 -24.83154297 0.68969727 C-24.1329718 0.65278275 -23.43440063 0.61586823 -22.71466064 0.57783508 C-15.14700994 0.20602892 -7.57617037 0.03960234 0 0 Z M-34.94091797 4.29516602 C-34.94091797 8.25516602 -34.94091797 12.21516602 -34.94091797 16.29516602 C-31.64091797 16.29516602 -28.34091797 16.29516602 -24.94091797 16.29516602 C-24.94091797 16.95516602 -24.94091797 17.61516602 -24.94091797 18.29516602 C-27.91091797 18.29516602 -30.88091797 18.29516602 -33.94091797 18.29516602 C-34.02170438 20.41954941 -34.08000938 22.54479832 -34.12841797 24.67016602 C-34.16322266 25.85352539 -34.19802734 27.03688477 -34.23388672 28.25610352 C-34.13720703 29.25899414 -34.04052734 30.26188477 -33.94091797 31.29516602 C-30.21551135 33.77877043 -28.31028824 33.52675271 -23.86669922 33.49047852 C-23.18286667 33.48764862 -22.49903412 33.48481873 -21.79447937 33.48190308 C-19.61394632 33.47072285 -17.43382652 33.44562293 -15.25341797 33.42016602 C-13.7736062 33.41013339 -12.29378798 33.40100803 -10.81396484 33.39282227 C-7.18932923 33.37249341 -3.56558527 33.33334273 0.05908203 33.29516602 C0.05908203 28.67516602 0.05908203 24.05516602 0.05908203 19.29516602 C-1.59091797 19.29516602 -3.24091797 19.29516602 -4.94091797 19.29516602 C-4.94091797 18.30516602 -4.94091797 17.31516602 -4.94091797 16.29516602 C-3.29091797 16.29516602 -1.64091797 16.29516602 0.05908203 16.29516602 C0.05908203 11.67516602 0.05908203 7.05516602 0.05908203 2.29516602 C-4.28281829 2.24919295 -8.62387031 2.20938721 -12.96582031 2.18530273 C-14.44208644 2.17526011 -15.91833276 2.16162336 -17.39453125 2.14428711 C-19.51941831 2.1199618 -21.64404182 2.10866561 -23.76904297 2.09985352 C-25.04682617 2.08937988 -26.32460938 2.07890625 -27.64111328 2.06811523 C-31.19144686 2.09979654 -31.19144686 2.09979654 -34.94091797 4.29516602 Z " fill="#EEEEEE" transform="translate(87.94091796875,11.704833984375)"/>
<path d="M0 0 C0 0.66 0 1.32 0 2 C0.60328125 1.90460937 1.2065625 1.80921875 1.828125 1.7109375 C3.02695313 1.54464844 3.02695313 1.54464844 4.25 1.375 C5.03890625 1.25898438 5.8278125 1.14296875 6.640625 1.0234375 C9.45555743 0.9954746 10.77742875 1.25369402 13 3 C13.609375 5.6015625 13.609375 5.6015625 13.75 8.625 C13.80671875 9.62789062 13.8634375 10.63078125 13.921875 11.6640625 C13.94765625 12.43492188 13.9734375 13.20578125 14 14 C12.87980469 14.20496094 11.75960937 14.40992187 10.60546875 14.62109375 C9.13279176 14.89311689 7.66013664 15.16525849 6.1875 15.4375 C5.44951172 15.57220703 4.71152344 15.70691406 3.95117188 15.84570312 C0.88684924 16.41419737 -2.03928953 17.01309651 -5 18 C-7.47234854 18.12448593 -9.90256256 18.19011112 -12.375 18.1875 C-13.08092285 18.18741943 -13.7868457 18.18733887 -14.51416016 18.18725586 C-29.95505122 18.02247439 -29.95505122 18.02247439 -36 15 C-36 14.01 -36 13.02 -36 12 C-34.35 11.67 -32.7 11.34 -31 11 C-32.32 10.34 -33.64 9.68 -35 9 C-33.68 7.68 -32.36 6.36 -31 5 C-32.65 5 -34.3 5 -36 5 C-36 3.68 -36 2.36 -36 1 C-27.00204444 -3.49897778 -8.85804959 -4.1491236 0 0 Z " fill="#9B9B9B" transform="translate(167,21)"/>
<path d="M0 0 C4.16138263 -0.08159574 7.9472484 0.01751476 12 1 C12 1.33 12 1.66 12 2 C10.02 2 8.04 2 6 2 C6.33 4.97 6.66 7.94 7 11 C8.22976563 10.98839844 9.45953125 10.97679687 10.7265625 10.96484375 C12.35937347 10.95545978 13.9921861 10.94636023 15.625 10.9375 C16.83736328 10.92493164 16.83736328 10.92493164 18.07421875 10.91210938 C19.26337891 10.90727539 19.26337891 10.90727539 20.4765625 10.90234375 C21.5605835 10.89448853 21.5605835 10.89448853 22.66650391 10.88647461 C25.46571381 11.02265714 28.2356107 11.53926845 31 12 C31 18.27 31 24.54 31 31 C27.75074502 31.36269359 24.50093228 31.71546522 21.25 32.0625 C20.32960938 32.16626953 19.40921875 32.27003906 18.4609375 32.37695312 C17.57148438 32.47041016 16.68203125 32.56386719 15.765625 32.66015625 C14.54020996 32.79369507 14.54020996 32.79369507 13.29003906 32.92993164 C11 33 11 33 7 32 C6.67 35.3 6.34 38.6 6 42 C5.34 42 4.68 42 4 42 C4 28.47 4 14.94 4 1 C2.68 0.67 1.36 0.34 0 0 Z " fill="#8E8E8E" transform="translate(365,8)"/>
<path d="M0 0 C1.06992188 0.01289063 2.13984375 0.02578125 3.2421875 0.0390625 C4.35335937 0.07257812 5.46453125 0.10609375 6.609375 0.140625 C7.73601562 0.15867188 8.86265625 0.17671875 10.0234375 0.1953125 C12.80294396 0.24242278 15.5807284 0.30819139 18.359375 0.390625 C18.359375 0.720625 18.359375 1.050625 18.359375 1.390625 C17.286875 1.679375 16.214375 1.968125 15.109375 2.265625 C12.26537136 3.11882609 9.92428517 3.9542753 7.359375 5.390625 C7.689375 5.720625 8.019375 6.050625 8.359375 6.390625 C8.43257121 9.08717354 8.45180037 11.75753958 8.421875 14.453125 C8.41736328 15.21173828 8.41285156 15.97035156 8.40820312 16.75195312 C8.3963818 18.63154371 8.37844578 20.51109399 8.359375 22.390625 C7.699375 22.720625 7.039375 23.050625 6.359375 23.390625 C5.89286293 25.51639282 5.89286293 25.51639282 5.734375 27.953125 C5.65960938 28.77941406 5.58484375 29.60570313 5.5078125 30.45703125 C5.45882812 31.09511719 5.40984375 31.73320313 5.359375 32.390625 C4.699375 31.730625 4.039375 31.070625 3.359375 30.390625 C3.359375 29.070625 3.359375 27.750625 3.359375 26.390625 C0.059375 26.390625 -3.240625 26.390625 -6.640625 26.390625 C-6.71410156 25.17826172 -6.71410156 25.17826172 -6.7890625 23.94140625 C-6.90121094 22.33845703 -6.90121094 22.33845703 -7.015625 20.703125 C-7.08523437 19.64738281 -7.15484375 18.59164063 -7.2265625 17.50390625 C-7.63007703 14.46993382 -8.42838597 12.18069897 -9.640625 9.390625 C-10.015625 6.828125 -10.015625 6.828125 -9.640625 4.390625 C-6.66281575 0.5983127 -4.76208161 -0.10132089 0 0 Z " fill="#747575" transform="translate(117.640625,1.609375)"/>
<path d="M0 0 C2.03833424 1.2739589 4.03852126 2.61061923 6 4 C6 4.66 6 5.32 6 6 C6.99 6.33 7.98 6.66 9 7 C9.61875 7.680625 10.2375 8.36125 10.875 9.0625 C12.8480056 11.18254127 12.8480056 11.18254127 15.5 11.5625 C19.00683673 10.77346174 20.04087317 8.90241012 22 6 C22.99 6.495 22.99 6.495 24 7 C21.125 11.875 21.125 11.875 20 13 C21.98 13 23.96 13 26 13 C26.268125 12.071875 26.53625 11.14375 26.8125 10.1875 C27.90977245 7.24218975 28.53357169 5.84982123 31 4 C31.66 4 32.32 4 33 4 C33.99 5.98 33.99 5.98 35 8 C33.35 9.32 31.7 10.64 30 12 C31.66342837 13.66342837 33.7825709 13.36048097 36.0625 13.5625 C36.98160156 13.64628906 37.90070313 13.73007812 38.84765625 13.81640625 C39.55792969 13.87699219 40.26820313 13.93757813 41 14 C41 14.33 41 14.66 41 15 C7.67 15 -25.66 15 -60 15 C-59.34 11.04 -58.68 7.08 -58 3 C-57.67 3 -57.34 3 -57 3 C-56.875 9.625 -56.875 9.625 -58 13 C-57.20335937 12.9278125 -56.40671875 12.855625 -55.5859375 12.78125 C-54.52632812 12.6884375 -53.46671875 12.595625 -52.375 12.5 C-51.33085937 12.4071875 -50.28671875 12.314375 -49.2109375 12.21875 C-46.12853212 12.00875645 -43.08834771 11.96290273 -40 12 C-40 10.68 -40 9.36 -40 8 C-44.29 8 -48.58 8 -53 8 C-53.33 7.34 -53.66 6.68 -54 6 C-51.56242587 5.97301578 -49.12515085 5.95316901 -46.6875 5.9375 C-45.99720703 5.92912109 -45.30691406 5.92074219 -44.59570312 5.91210938 C-41.4516975 5.89692094 -39.00579981 5.99806673 -36 7 C-35.67 6.34 -35.34 5.68 -35 5 C-35 5.99 -35 6.98 -35 8 C-33.68 8.33 -32.36 8.66 -31 9 C-31 9.66 -31 10.32 -31 11 C-31.99 11.495 -31.99 11.495 -33 12 C-27.39 12.66 -21.78 13.32 -16 14 C-15.67 13.34 -15.34 12.68 -15 12 C-15 12.66 -15 13.32 -15 14 C-14.01 14 -13.02 14 -12 14 C-12 13.34 -12 12.68 -12 12 C-10.2709226 11.97274659 -8.54171824 11.95349013 -6.8125 11.9375 C-5.84957031 11.92589844 -4.88664062 11.91429687 -3.89453125 11.90234375 C-1.14423487 11.99513378 1.32479591 12.37888315 4 13 C2.8729078 8.78254599 2.8729078 8.78254599 0.3125 5.375 C-0.120625 4.92125 -0.55375 4.4675 -1 4 C-0.6875 1.8125 -0.6875 1.8125 0 0 Z " fill="#8D8D8D" transform="translate(309,42)"/>
<path d="M0 0 C0.66 0 1.32 0 2 0 C2 2.31 2 4.62 2 7 C4.31 7 6.62 7 9 7 C9 9.97 9 12.94 9 16 C8.34 16 7.68 16 7 16 C7 13.69 7 11.38 7 9 C5.35 9 3.7 9 2 9 C2 13.95 2 18.9 2 24 C3.65 24 5.3 24 7 24 C7 21.69 7 19.38 7 17 C7.66 17 8.32 17 9 17 C9 19.31 9 21.62 9 24 C9.74507813 23.67257813 10.49015625 23.34515625 11.2578125 23.0078125 C16.4930836 21.59789606 21.48120186 21.78864609 26.875 21.875 C27.94492187 21.88402344 29.01484375 21.89304687 30.1171875 21.90234375 C32.74502439 21.92580658 35.37239406 21.95863541 38 22 C38 22.99 38 23.98 38 25 C34.37751757 26.13321468 30.75159469 27.25502223 27.125 28.375 C26.11179687 28.69210938 25.09859375 29.00921875 24.0546875 29.3359375 C17.75186715 31.27526684 11.4955635 32.85647829 5 34 C5.33 33.01 5.66 32.02 6 31 C4.68 30.67 3.36 30.34 2 30 C2 30.99 2 31.98 2 33 C1.34 33 0.68 33 0 33 C0 30.69 0 28.38 0 26 C-2.31 26 -4.62 26 -7 26 C-7 23.03 -7 20.06 -7 17 C-6.34 17 -5.68 17 -5 17 C-5 19.31 -5 21.62 -5 24 C-3.35 24 -1.7 24 0 24 C0 18.72 0 13.44 0 8 C-1.65 8 -3.3 8 -5 8 C-5 10.31 -5 12.62 -5 15 C-5.99 15.495 -5.99 15.495 -7 16 C-7 13.03 -7 10.06 -7 7 C-4.69 7 -2.38 7 0 7 C0 4.69 0 2.38 0 0 Z " fill="#A1A1A1" transform="translate(434,13)"/>
<path d="M0 0 C3.29172069 -0.02688338 6.58322354 -0.0467821 9.875 -0.0625 C10.81214844 -0.07087891 11.74929688 -0.07925781 12.71484375 -0.08789062 C14.05869141 -0.09272461 14.05869141 -0.09272461 15.4296875 -0.09765625 C16.67081299 -0.10551147 16.67081299 -0.10551147 17.93701172 -0.11352539 C20 0 20 0 22 1 C22 1.99 22 2.98 22 4 C23.32 4.33 24.64 4.66 26 5 C25.67 6.65 25.34 8.3 25 10 C24.01 10 23.02 10 22 10 C22 10.99 22 11.98 22 13 C23.32 12.67 24.64 12.34 26 12 C26 13.32 26 14.64 26 16 C20.87309674 17.04191905 15.95481535 17.15018459 10.75 17.125 C9.9353125 17.12886719 9.120625 17.13273437 8.28125 17.13671875 C2.25347799 17.126739 2.25347799 17.126739 0 16 C0 10.72 0 5.44 0 0 Z " fill="#2B2B2B" transform="translate(258,21)"/>
<path d="M0 0 C45.54 0 91.08 0 138 0 C138 0.33 138 0.66 138 1 C125.625 1.99 125.625 1.99 113 3 C114.03761355 7.1504542 115.63802322 9.49513123 118 13 C118 13.66 118 14.32 118 15 C112.00406112 13.88964095 107.99978983 10.45690866 104 6 C104 5.34 104 4.68 104 4 C103.05125 4.185625 102.1025 4.37125 101.125 4.5625 C98 5 98 5 96 4 C95.67 4.99 95.34 5.98 95 7 C94.34 7 93.68 7 93 7 C92.79375 7.556875 92.5875 8.11375 92.375 8.6875 C90.44999226 11.92501302 87.96149098 13.68231141 85 16 C84.25 14.25 84.25 14.25 84 12 C85.31200404 10.64567325 86.64631404 9.31266518 88 8 C88 6.68 88 5.36 88 4 C79.75 4 71.5 4 63 4 C63 3.34 63 2.68 63 2 C42.21 1.67 21.42 1.34 0 1 C0 0.67 0 0.34 0 0 Z " fill="#ABABAA" transform="translate(224,1)"/>
<path d="M0 0 C10.23 0 20.46 0 31 0 C31 4.62 31 9.24 31 14 C29.35 14 27.7 14 26 14 C26 14.99 26 15.98 26 17 C20.66666667 17 15.33333333 17 10 17 C10 17.99 10 18.98 10 20 C9.34 20 8.68 20 8 20 C8 18.02 8 16.04 8 14 C8.66 13.67 9.32 13.34 10 13 C9.34 13 8.68 13 8 13 C8 9.37 8 5.74 8 2 C5.36 1.67 2.72 1.34 0 1 C0 0.67 0 0.34 0 0 Z " fill="#929292" transform="translate(57,14)"/>
<path d="M0 0 C1.32 0.66 2.64 1.32 4 2 C4.08732726 5.89569135 4.14050185 9.79112982 4.1875 13.6875 C4.21263672 14.79029297 4.23777344 15.89308594 4.26367188 17.02929688 C4.27333984 18.09599609 4.28300781 19.16269531 4.29296875 20.26171875 C4.3086792 21.24100342 4.32438965 22.22028809 4.34057617 23.22924805 C3.94372596 26.45781652 2.83516725 28.34779173 1 31 C0.34 30.67 -0.32 30.34 -1 30 C-0.67 26.37 -0.34 22.74 0 19 C-0.78632813 19.17402344 -1.57265625 19.34804688 -2.3828125 19.52734375 C-6.95628272 20.12495703 -11.28529766 19.8631808 -15.875 19.5625 C-16.75414062 19.51029297 -17.63328125 19.45808594 -18.5390625 19.40429688 C-20.69307499 19.27552439 -22.84659659 19.13858537 -25 19 C-25 15.7 -25 12.4 -25 9 C-22.14576808 8.97281684 -19.29179985 8.95307295 -16.4375 8.9375 C-15.23770508 8.92493164 -15.23770508 8.92493164 -14.01367188 8.91210938 C-9.22836896 8.89257753 -4.71854949 9.19562982 0 10 C-0.185625 8.72125 -0.37125 7.4425 -0.5625 6.125 C-1.125 2.25 -1.125 2.25 0 0 Z " fill="#292828" transform="translate(232,15)"/>
<path d="M0 0 C1.32 0.66 2.64 1.32 4 2 C4 10.58 4 19.16 4 28 C2.68 28.33 1.36 28.66 0 29 C0 26.69 0 24.38 0 22 C-0.66 22.33 -1.32 22.66 -2 23 C-2 21.68 -2 20.36 -2 19 C-4.97 19 -7.94 19 -11 19 C-10.67 18.34 -10.34 17.68 -10 17 C-7.36 17.33 -4.72 17.66 -2 18 C-2 17.01 -2 16.02 -2 15 C-3.32 14.67 -4.64 14.34 -6 14 C-4.68 14 -3.36 14 -2 14 C-2 13.01 -2 12.02 -2 11 C-6.62 11 -11.24 11 -16 11 C-15.855625 12.27875 -15.71125 13.5575 -15.5625 14.875 C-15.48128906 15.59429687 -15.40007812 16.31359375 -15.31640625 17.0546875 C-15.08707039 19.07404316 -15.08707039 19.07404316 -14 21 C-14.9375 23.625 -14.9375 23.625 -16 26 C-16.99 25.34 -17.98 24.68 -19 24 C-19.34057617 22.02880859 -19.34057617 22.02880859 -19.29296875 19.6484375 C-19.28330078 18.79765625 -19.27363281 17.946875 -19.26367188 17.0703125 C-19.23853516 16.18085938 -19.21339844 15.29140625 -19.1875 14.375 C-19.17396484 13.4778125 -19.16042969 12.580625 -19.14648438 11.65625 C-19.11106925 9.43690211 -19.06168461 7.21874812 -19 5 C-18.360625 4.71125 -17.72125 4.4225 -17.0625 4.125 C-14.84793921 3.17176549 -14.84793921 3.17176549 -14 1 C-12.20741442 1.08693141 -10.41584856 1.19510504 -8.625 1.3125 C-7.12839844 1.39951172 -7.12839844 1.39951172 -5.6015625 1.48828125 C-4.74304688 1.65714844 -3.88453125 1.82601563 -3 2 C-2.01 3.485 -2.01 3.485 -1 5 C-0.67 3.35 -0.34 1.7 0 0 Z " fill="#7A7A7A" transform="translate(362,15)"/>
<path d="M0 0 C0.474375 0.66 0.94875 1.32 1.4375 2 C2.2109375 2.99 2.2109375 2.99 3 4 C3.33 4 3.66 4 4 4 C4 5.98 4 7.96 4 10 C4.66 10 5.32 10 6 10 C6 10.99 6 11.98 6 13 C9.3 12.67 12.6 12.34 16 12 C16.66 13.32 17.32 14.64 18 16 C10.08 16 2.16 16 -6 16 C-6 16.66 -6 17.32 -6 18 C-7.65 18 -9.3 18 -11 18 C-11 17.34 -11 16.68 -11 16 C-14.3 16 -17.6 16 -21 16 C-18.75421558 12.59260295 -16.48862878 9.23521742 -14 6 C-16.31 5.67 -18.62 5.34 -21 5 C-21.33 3.68 -21.66 2.36 -22 1 C-13.585 2.485 -13.585 2.485 -5 4 C-4.67 3.34 -4.34 2.68 -4 2 C-1.9375 0.875 -1.9375 0.875 0 0 Z " fill="#7C7C7C" transform="translate(230,41)"/>
<path d="M0 0 C0.99 0.33 1.98 0.66 3 1 C3 2.65 3 4.3 3 6 C4.65 6.33 6.3 6.66 8 7 C6.68 7.33 5.36 7.66 4 8 C4.33 8.99 4.66 9.98 5 11 C5.99 11.33 6.98 11.66 8 12 C8 12.99 8 13.98 8 15 C10.31 15 12.62 15 15 15 C15.625 16.8125 15.625 16.8125 16 19 C15.34 19.99 14.68 20.98 14 22 C11.375 22.1875 11.375 22.1875 9 22 C9 21.34 9 20.68 9 20 C8.34 20.33 7.68 20.66 7 21 C6.67 21.99 6.34 22.98 6 24 C6.99 24.33 7.98 24.66 9 25 C8.195625 25.12375 7.39125 25.2475 6.5625 25.375 C5.716875 25.58125 4.87125 25.7875 4 26 C3.67 26.66 3.34 27.32 3 28 C4.98 28 6.96 28 9 28 C8.34 28.99 7.68 29.98 7 31 C5.68 31 4.36 31 3 31 C3 32.98 3 34.96 3 37 C2.34 37 1.68 37 1 37 C1 35.02 1 33.04 1 31 C-0.65 31 -2.3 31 -4 31 C-3.67 29.35 -3.34 27.7 -3 26 C-2.34 26 -1.68 26 -1 26 C-0.67 25.01 -0.34 24.02 0 23 C2.0625 21.8125 2.0625 21.8125 4 21 C1.36749612 19.68374806 0.19820944 20.25186342 -2.625 20.9375 C-3.44226563 21.13214844 -4.25953125 21.32679687 -5.1015625 21.52734375 C-5.72804688 21.68332031 -6.35453125 21.83929688 -7 22 C-7.04241723 19.66705225 -7.04092937 17.33297433 -7 15 C-6 14 -6 14 -3.4375 13.9375 C-2.633125 13.958125 -1.82875 13.97875 -1 14 C-1.495 12.865625 -1.99 11.73125 -2.5 10.5625 C-4 7 -4 7 -4 6 C-2.35 6 -0.7 6 1 6 C0.67 4.02 0.34 2.04 0 0 Z " fill="#8A8A8A" transform="translate(296,11)"/>
<path d="M0 0 C0 5.94 0 11.88 0 18 C0.99 18.33 1.98 18.66 3 19 C-3.84817102 18.51358785 -10.33042073 17.64006048 -17 16 C-17 15.01 -17 14.02 -17 13 C-15.35 12.67 -13.7 12.34 -12 12 C-13.32 11.34 -14.64 10.68 -16 10 C-14.68 8.68 -13.36 7.36 -12 6 C-13.65 6 -15.3 6 -17 6 C-17 4.68 -17 3.36 -17 2 C-14.79885109 0.89942555 -13.18873532 0.69879307 -10.75 0.4375 C-10.00234375 0.35371094 -9.2546875 0.26992188 -8.484375 0.18359375 C-5.66328062 -0.02488335 -2.82878705 0 0 0 Z " fill="#A4A4A4" transform="translate(148,20)"/>
<path d="M0 0 C0.33 1.32 0.66 2.64 1 4 C1.89138672 3.98259766 1.89138672 3.98259766 2.80078125 3.96484375 C5.53518698 3.93507572 8.26565622 3.96718787 11 4 C12.41925781 3.97099609 12.41925781 3.97099609 13.8671875 3.94140625 C17.92404137 4.02568992 20.85644328 4.09362541 24.109375 6.671875 C25.89556858 8.70233437 27.46235898 10.77710592 29 13 C29.804375 13.99 30.60875 14.98 31.4375 16 C32.2109375 16.99 32.2109375 16.99 33 18 C29.37 18 25.74 18 22 18 C22.33 17.34 22.66 16.68 23 16 C23.66 16 24.32 16 25 16 C23.70876099 13.41752198 22.65048593 13.06818404 20 12 C17.68607335 11.63902256 17.68607335 11.63902256 15.234375 11.5859375 C13.90019531 11.52792969 13.90019531 11.52792969 12.5390625 11.46875 C11.61867188 11.4378125 10.69828125 11.406875 9.75 11.375 C8.34621094 11.31699219 8.34621094 11.31699219 6.9140625 11.2578125 C4.60956946 11.16375156 2.30507987 11.07810601 0 11 C-0.19406478 9.35492782 -0.38007935 7.70890406 -0.5625 6.0625 C-0.66691406 5.14597656 -0.77132812 4.22945312 -0.87890625 3.28515625 C-0.91886719 2.53105469 -0.95882812 1.77695312 -1 1 C-0.67 0.67 -0.34 0.34 0 0 Z " fill="#414141" transform="translate(253,37)"/>
<path d="M0 0 C3.63 0 7.26 0 11 0 C6.8984375 4.8828125 6.8984375 4.8828125 5 7 C4.60893066 7.51159668 4.21786133 8.02319336 3.81494141 8.55029297 C0.84051925 12.08564834 -1.31278761 13.39242894 -5.9609375 13.8046875 C-7.76500839 13.8573611 -9.57016766 13.88014931 -11.375 13.875 C-12.30183594 13.895625 -13.22867187 13.91625 -14.18359375 13.9375 C-16.45663414 13.98436681 -18.72657785 14.00446394 -21 14 C-21.33 15.32 -21.66 16.64 -22 18 C-23 17 -23 17 -23.09765625 14.71484375 C-23.08605469 13.79832031 -23.07445312 12.88179687 -23.0625 11.9375 C-23.05347656 11.01839844 -23.04445312 10.09929688 -23.03515625 9.15234375 C-23.02355469 8.44207031 -23.01195312 7.73179688 -23 7 C-22.39003174 6.98018066 -21.78006348 6.96036133 -21.15161133 6.93994141 C-18.37149467 6.84432124 -15.59209154 6.73479295 -12.8125 6.625 C-11.37293945 6.57859375 -11.37293945 6.57859375 -9.90429688 6.53125 C-8.50727539 6.47324219 -8.50727539 6.47324219 -7.08203125 6.4140625 C-5.80162964 6.36693115 -5.80162964 6.36693115 -4.49536133 6.31884766 C-1.73785578 5.96650422 0.46999969 5.12928753 3 4 C3 3.34 3 2.68 3 2 C2.01 1.67 1.02 1.34 0 1 C0 0.67 0 0.34 0 0 Z " fill="#2C2C2C" transform="translate(275,4)"/>
<path d="M0 0 C0.99386719 0.10183594 1.98773438 0.20367188 3.01171875 0.30859375 C3.77097656 0.39238281 4.53023438 0.47617187 5.3125 0.5625 C5.3125 2.8725 5.3125 5.1825 5.3125 7.5625 C2.6725 7.5625 0.0325 7.5625 -2.6875 7.5625 C-0.0475 7.8925 2.5925 8.2225 5.3125 8.5625 C5.6425 9.5525 5.9725 10.5425 6.3125 11.5625 C6.9725 11.2325 7.6325 10.9025 8.3125 10.5625 C7.70336294 17.99397208 7.70336294 17.99397208 5.9375 20.5625 C4.3125 21.5625 4.3125 21.5625 1.3125 21.5625 C1.3125 20.5725 1.3125 19.5825 1.3125 18.5625 C0.3225 18.2325 -0.6675 17.9025 -1.6875 17.5625 C0.2925 16.5725 2.2725 15.5825 4.3125 14.5625 C1.009186 13.67314623 -2.31044375 13.09975895 -5.6875 12.5625 C-5.6875 11.5725 -5.6875 10.5825 -5.6875 9.5625 C-6.6775 9.2325 -7.6675 8.9025 -8.6875 8.5625 C-8.6875 5.9225 -8.6875 3.2825 -8.6875 0.5625 C-5.3763987 -0.54120043 -3.44001051 -0.36423641 0 0 Z " fill="#898989" transform="translate(354.6875,25.4375)"/>
<path d="M0 0 C4.16138263 -0.08159574 7.9472484 0.01751476 12 1 C12 1.33 12 1.66 12 2 C10.02 2 8.04 2 6 2 C6.11347619 3.97986082 6.2410935 5.95891598 6.375 7.9375 C6.44460938 9.03964844 6.51421875 10.14179688 6.5859375 11.27734375 C6.72257812 12.17582031 6.85921875 13.07429688 7 14 C7.66 14.33 8.32 14.66 9 15 C9 16.98 9 18.96 9 21 C10.32 21 11.64 21 13 21 C13 18.69 13 16.38 13 14 C13.33 14 13.66 14 14 14 C14 16.31 14 18.62 14 21 C15.32 21.33 16.64 21.66 18 22 C16.68 22 15.36 22 14 22 C14 24.31 14 26.62 14 29 C13.67 29 13.34 29 13 29 C13 26.69 13 24.38 13 22 C11.68 22 10.36 22 9 22 C9 24.31 9 26.62 9 29 C13.29 29.33 17.58 29.66 22 30 C22 30.33 22 30.66 22 31 C17.05 31.33 12.1 31.66 7 32 C6.67 35.3 6.34 38.6 6 42 C5.34 42 4.68 42 4 42 C4 28.47 4 14.94 4 1 C2.68 0.67 1.36 0.34 0 0 Z " fill="#888888" transform="translate(365,8)"/>
<path d="M0 0 C0.66 0 1.32 0 2 0 C2 2.31 2 4.62 2 7 C4.31 7 6.62 7 9 7 C9 9.97 9 12.94 9 16 C8.34 16 7.68 16 7 16 C7 13.69 7 11.38 7 9 C5.35 9 3.7 9 2 9 C2 13.95 2 18.9 2 24 C3.65 24 5.3 24 7 24 C7 21.69 7 19.38 7 17 C7.66 17 8.32 17 9 17 C9 19.97 9 22.94 9 26 C6.69 26 4.38 26 2 26 C2 28.31 2 30.62 2 33 C1.34 33 0.68 33 0 33 C0 30.69 0 28.38 0 26 C-2.31 26 -4.62 26 -7 26 C-7 23.03 -7 20.06 -7 17 C-6.34 17 -5.68 17 -5 17 C-5 19.31 -5 21.62 -5 24 C-3.35 24 -1.7 24 0 24 C0 18.72 0 13.44 0 8 C-1.65 8 -3.3 8 -5 8 C-5 10.31 -5 12.62 -5 15 C-5.99 15.495 -5.99 15.495 -7 16 C-7 13.03 -7 10.06 -7 7 C-4.69 7 -2.38 7 0 7 C0 4.69 0 2.38 0 0 Z " fill="#C7C7C7" transform="translate(434,13)"/>
<path d="M0 0 C1.65 0 3.3 0 5 0 C5 0.66 5 1.32 5 2 C13.25 2 21.5 2 30 2 C30.495 3.98 30.495 3.98 31 6 C30.34 6.33 29.68 6.66 29 7 C28.505 6.01 28.505 6.01 28 5 C26.68 6.32 25.36 7.64 24 9 C24 8.34 24 7.68 24 7 C21.69 6.67 19.38 6.34 17 6 C16.67 6.66 16.34 7.32 16 8 C16 7.34 16 6.68 16 6 C15.31897217 6.02094727 14.63794434 6.04189453 13.9362793 6.06347656 C10.85350278 6.14657452 7.77096163 6.19863954 4.6875 6.25 C3.61564453 6.28351562 2.54378906 6.31703125 1.43945312 6.3515625 C-0.10258789 6.37089844 -0.10258789 6.37089844 -1.67578125 6.390625 C-2.62364502 6.41157227 -3.57150879 6.43251953 -4.5480957 6.45410156 C-7 6 -7 6 -10 2 C-6.7 2 -3.4 2 0 2 C0 1.34 0 0.68 0 0 Z " fill="#646262" transform="translate(219,0)"/>
<path d="M0 0 C0.33 1.32 0.66 2.64 1 4 C-4.95795479 5.98598493 -10.74892565 6.57045059 -17 7 C-16.67 7.99 -16.34 8.98 -16 10 C-14.35 10.33 -12.7 10.66 -11 11 C-12.32 12.32 -13.64 13.64 -15 15 C-13.68 15.66 -12.36 16.32 -11 17 C-12 18 -12 18 -14.5625 18.0625 C-15.366875 18.041875 -16.17125 18.02125 -17 18 C-17 19.32 -17 20.64 -17 22 C-17.66 22 -18.32 22 -19 22 C-19 21.01 -19 20.02 -19 19 C-19.99 18.67 -20.98 18.34 -22 18 C-22 16.02 -22 14.04 -22 12 C-21.67 12 -21.34 12 -21 12 C-21 13.65 -21 15.3 -21 17 C-20.34 17 -19.68 17 -19 17 C-19.33 12.71 -19.66 8.42 -20 4 C-13.39061969 0.29229885 -7.48174237 -0.15268862 0 0 Z " fill="#707070" transform="translate(148,15)"/>
<path d="M0 0 C0.05399736 1.45792884 0.09279177 2.91642712 0.125 4.375 C0.14820313 5.18710937 0.17140625 5.99921875 0.1953125 6.8359375 C0 9 0 9 -2 11 C-4.8203125 11.1953125 -4.8203125 11.1953125 -8.125 11.125 C-9.22070312 11.10695313 -10.31640625 11.08890625 -11.4453125 11.0703125 C-12.70988281 11.03550781 -12.70988281 11.03550781 -14 11 C-13.67 9.68 -13.34 8.36 -13 7 C-13.99 7 -14.98 7 -16 7 C-15.690625 6.236875 -15.38125 5.47375 -15.0625 4.6875 C-14.32106407 2.81210323 -13.63771783 0.91315348 -13 -1 C-11.58566794 -1.2236337 -10.16832382 -1.42826476 -8.75 -1.625 C-7.56664062 -1.79902344 -7.56664062 -1.79902344 -6.359375 -1.9765625 C-3.67847541 -2.00319395 -2.27305911 -1.36592084 0 0 Z " fill="#9D9D9D" transform="translate(329,25)"/>
<path d="M0 0 C8.58 0.99 17.16 1.98 26 3 C26 3.99 26 4.98 26 6 C23.03159849 8.95836723 20.6839033 9.39766935 16.578125 9.51171875 C15.55332031 9.54716797 14.52851563 9.58261719 13.47265625 9.61914062 C11.87744141 9.65297852 11.87744141 9.65297852 10.25 9.6875 C8.63158203 9.73874023 8.63158203 9.73874023 6.98046875 9.79101562 C4.32041623 9.87340663 1.66068965 9.94258645 -1 10 C-1 8.68 -1 7.36 -1 6 C3.62 6 8.24 6 13 6 C13 5.34 13 4.68 13 4 C8.71 4 4.42 4 0 4 C0 2.68 0 1.36 0 0 Z " fill="#878787" transform="translate(450,26)"/>
<path d="M0 0 C1.65 0 3.3 0 5 0 C5 5.28 5 10.56 5 16 C3.35 16 1.7 16 0 16 C0 13.69 0 11.38 0 9 C-0.66 9 -1.32 9 -2 9 C-1.938125 9.94875 -1.87625 10.8975 -1.8125 11.875 C-1.874375 12.90625 -1.93625 13.9375 -2 15 C-5.22791555 17.1519437 -6.28400809 17.20086443 -10 17 C-10 16.34 -10 15.68 -10 15 C-10.99 14.67 -11.98 14.34 -13 14 C-12.67 13.34 -12.34 12.68 -12 12 C-9.69 12 -7.38 12 -5 12 C-5.18415432 9.05908413 -5.18415432 9.05908413 -6 6 C-7.95163118 4.56362302 -7.95163118 4.56362302 -10 4 C-9.01 4 -8.02 4 -7 4 C-6.67 3.34 -6.34 2.68 -6 2 C-6 2.66 -6 3.32 -6 4 C-5.34 4 -4.68 4 -4 4 C-4 4.66 -4 5.32 -4 6 C-3.01 6.33 -2.02 6.66 -1 7 C-0.67 4.69 -0.34 2.38 0 0 Z " fill="#9C9C9C" transform="translate(429,21)"/>
<path d="M0 0 C0.33 0.99 0.66 1.98 1 3 C4.3 2.67 7.6 2.34 11 2 C11.66 3.32 12.32 4.64 13 6 C5.08 6 -2.84 6 -11 6 C-11 6.66 -11 7.32 -11 8 C-12.65 8 -14.3 8 -16 8 C-16 7.34 -16 6.68 -16 6 C-19.3 6 -22.6 6 -26 6 C-25.34 4.68 -24.68 3.36 -24 2 C-16.08 2 -8.16 2 0 2 C0 1.34 0 0.68 0 0 Z " fill="#7C7779" transform="translate(235,51)"/>
<path d="M0 0 C1.32 0.66 2.64 1.32 4 2 C4.08732726 5.89569135 4.14050185 9.79112982 4.1875 13.6875 C4.21263672 14.79029297 4.23777344 15.89308594 4.26367188 17.02929688 C4.27333984 18.09599609 4.28300781 19.16269531 4.29296875 20.26171875 C4.3086792 21.24100342 4.32438965 22.22028809 4.34057617 23.22924805 C3.94372596 26.45781652 2.83516725 28.34779173 1 31 C0.34 30.67 -0.32 30.34 -1 30 C-0.67 26.37 -0.34 22.74 0 19 C-1.2375 19.2475 -1.2375 19.2475 -2.5 19.5 C-6.41272317 20.05896045 -10.05183173 20.06807187 -14 20 C-14 19.67 -14 19.34 -14 19 C-10.04 18.67 -6.08 18.34 -2 18 C-2 17.01 -2 16.02 -2 15 C-2.66 15 -3.32 15 -4 15 C-4 14.34 -4 13.68 -4 13 C-3.01 13 -2.02 13 -1 13 C-1.01160156 12.22914062 -1.02320313 11.45828125 -1.03515625 10.6640625 C-1.04869141 9.15972656 -1.04869141 9.15972656 -1.0625 7.625 C-1.07410156 6.62726562 -1.08570313 5.62953125 -1.09765625 4.6015625 C-1 2 -1 2 0 0 Z " fill="#545453" transform="translate(232,15)"/>
<path d="M0 0 C0.66 0.33 1.32 0.66 2 1 C2 1.66 2 2.32 2 3 C2.99 3 3.98 3 5 3 C5 3.99 5 4.98 5 6 C4.01 6.33 3.02 6.66 2 7 C1.67 7.99 1.34 8.98 1 10 C1.99 10.33 2.98 10.66 4 11 C3.195625 11.12375 2.39125 11.2475 1.5625 11.375 C0.716875 11.58125 -0.12875 11.7875 -1 12 C-1.33 12.66 -1.66 13.32 -2 14 C-0.02 14 1.96 14 4 14 C3.01 15.485 3.01 15.485 2 17 C0.68 17 -0.64 17 -2 17 C-2 18.98 -2 20.96 -2 23 C-2.66 23 -3.32 23 -4 23 C-4 21.02 -4 19.04 -4 17 C-5.65 17 -7.3 17 -9 17 C-8.67 15.35 -8.34 13.7 -8 12 C-7.34 12 -6.68 12 -6 12 C-5.67 11.01 -5.34 10.02 -5 9 C-2.9375 7.8125 -2.9375 7.8125 -1 7 C-3.63250388 5.68374806 -4.80179056 6.25186342 -7.625 6.9375 C-8.44226563 7.13214844 -9.25953125 7.32679687 -10.1015625 7.52734375 C-10.72804688 7.68332031 -11.35453125 7.83929688 -12 8 C-12 5.69 -12 3.38 -12 1 C-10.046875 1.52083333 -8.09375 2.04166667 -6.140625 2.5625 C-3.71098139 3.13349349 -3.71098139 3.13349349 0 3 C0 2.01 0 1.02 0 0 Z " fill="#878787" transform="translate(301,25)"/>
<path d="M0 0 C2.6163018 2.3710235 3.90762414 4.16741755 4.30078125 7.7109375 C4.33081055 15.33837891 4.33081055 15.33837891 3 18 C2.01 18 1.02 18 0 18 C0 15.69 0 13.38 0 11 C-0.66 11 -1.32 11 -2 11 C-2 13.31 -2 15.62 -2 18 C-3.65 18 -5.3 18 -7 18 C-7 13.05 -7 8.1 -7 3 C-5.35 3 -3.7 3 -2 3 C-2 5.31 -2 7.62 -2 10 C-1.34 10 -0.68 10 0 10 C0 6.7 0 3.4 0 0 Z " fill="#9E9E9E" transform="translate(443,19)"/>
<path d="M0 0 C1.32 0.66 2.64 1.32 4 2 C3.67 3.32 3.34 4.64 3 6 C1.68 6.33 0.36 6.66 -1 7 C-1.33 10.3 -1.66 13.6 -2 17 C-2.33 17 -2.66 17 -3 17 C-3 13.7 -3 10.4 -3 7 C-3.66 7 -4.32 7 -5 7 C-5 10.3 -5 13.6 -5 17 C-5.33 17 -5.66 17 -6 17 C-6.33 14.03 -6.66 11.06 -7 8 C-7.33 10.64 -7.66 13.28 -8 16 C-8.66 15.67 -9.32 15.34 -10 15 C-10 14.34 -10 13.68 -10 13 C-13.7763932 12.7018576 -13.7763932 12.7018576 -16 14 C-15.67 12.02 -15.34 10.04 -15 8 C-14.01 8.33 -13.02 8.66 -12 9 C-12 7.02 -12 5.04 -12 3 C-8.74696956 1.37348478 -5.60774398 1.88546844 -2 2 C-1.67 2.33 -1.34 2.66 -1 3 C-0.67 2.01 -0.34 1.02 0 0 Z " fill="#818181" transform="translate(246,4)"/>
<path d="M0 0 C4.95 0 9.9 0 15 0 C15 3.63 15 7.26 15 11 C13.02 11.99 13.02 11.99 11 13 C9.16052663 11.21427748 7.32842259 9.42197551 5.5 7.625 C4.71302734 6.86316406 4.71302734 6.86316406 3.91015625 6.0859375 C2.56846819 4.76167396 1.28004185 3.38394135 0 2 C0 1.34 0 0.68 0 0 Z " fill="#8F8F8F" transform="translate(95,31)"/>
<path d="M0 0 C1.32 0.66 2.64 1.32 4 2 C4 5.63 4 9.26 4 13 C-0.95 13 -5.9 13 -11 13 C-9.21398196 9.42796392 -7.93313183 7.56649035 -5 5 C-4.34 5 -3.68 5 -3 5 C-2.690625 4.360625 -2.38125 3.72125 -2.0625 3.0625 C-1 1 -1 1 0 0 Z " fill="#909090" transform="translate(106,15)"/>
<path d="M0 0 C1.93719378 -0.05406122 3.87481921 -0.09282025 5.8125 -0.125 C6.89144531 -0.14820312 7.97039062 -0.17140625 9.08203125 -0.1953125 C12 0 12 0 15 2 C11.71380964 3.64309518 8.14395757 2.90380863 4.53125 2.7421875 C3.27828125 2.86980469 3.27828125 2.86980469 2 3 C1.01 4.485 1.01 4.485 0 6 C-3.3 5.34 -6.6 4.68 -10 4 C-9.67 3.01 -9.34 2.02 -9 1 C-6.03 1 -3.06 1 0 1 C0 0.67 0 0.34 0 0 Z M-4 6 C-1.03 6.495 -1.03 6.495 2 7 C2 20.53 2 34.06 2 48 C0.35 48 -1.3 48 -3 48 C-2.01 47.34 -1.02 46.68 0 46 C0.33767042 43.09843676 0.48908344 40.4000311 0.51171875 37.4921875 C0.52966995 36.65156769 0.54762115 35.81094788 0.56611633 34.94485474 C0.62038031 32.25495449 0.65416586 29.56523324 0.6875 26.875 C0.72065895 25.05336041 0.75514727 23.2317445 0.79101562 21.41015625 C0.87611572 16.94023305 0.94284956 12.47036441 1 8 C-0.65 8 -2.3 8 -4 8 C-4 7.34 -4 6.68 -4 6 Z " fill="#989898" transform="translate(367,2)"/>
<path d="M0 0 C2.03833424 1.2739589 4.03852126 2.61061923 6 4 C6 4.66 6 5.32 6 6 C6.99 6.33 7.98 6.66 9 7 C11.09694158 8.91191732 12.72741426 10.45482852 14 13 C15.32 13.33 16.64 13.66 18 14 C8.1 14 -1.8 14 -12 14 C-12 13.34 -12 12.68 -12 12 C-10.2709226 11.97274659 -8.54171824 11.95349013 -6.8125 11.9375 C-5.84957031 11.92589844 -4.88664062 11.91429687 -3.89453125 11.90234375 C-1.14423487 11.99513378 1.32479591 12.37888315 4 13 C2.8729078 8.78254599 2.8729078 8.78254599 0.3125 5.375 C-0.3371875 4.694375 -0.3371875 4.694375 -1 4 C-0.6875 1.8125 -0.6875 1.8125 0 0 Z " fill="#959595" transform="translate(309,42)"/>
<path d="M0 0 C1.15518918 0.90484792 2.29885406 1.8244206 3.4375 2.75 C4.07558594 3.26046875 4.71367187 3.7709375 5.37109375 4.296875 C7.18810554 6.19667629 7.60423197 7.43586908 8 10 C6 11 6 11 2.6875 10.875 C-1.31749511 11.01076255 -2.69475354 11.94538734 -6 14 C-8.3125 13.6875 -8.3125 13.6875 -10 13 C-9.46115292 9.1775535 -7.94772136 7.76475982 -5 5.375 C-2.04427685 3.05444701 -2.04427685 3.05444701 0 0 Z " fill="#8C8C8C" transform="translate(317,8)"/>
<path d="M0 0 C3.23046929 -0.53841155 4.93430122 -0.81637789 8 0 C10.44281138 2.04020995 12.14028122 4.43808652 14 7 C14.98144324 8.01821863 15.97627136 9.02430555 17 10 C5.51479821 11.0735426 5.51479821 11.0735426 1.80078125 8.44140625 C0.34583827 6.69054267 -0.8906408 4.98570231 -2 3 C-1.34 2.01 -0.68 1.02 0 0 Z " fill="#6D6D6C" transform="translate(320,5)"/>
<path d="M0 0 C2.31 0 4.62 0 7 0 C7.495 0.99 7.495 0.99 8 2 C7.67 2.66 7.34 3.32 7 4 C8.65 4 10.3 4 12 4 C12 4.33 12 4.66 12 5 C10.02 5 8.04 5 6 5 C6 4.01 6 3.02 6 2 C5.34 2 4.68 2 4 2 C4 2.99 4 3.98 4 5 C-5.9 5 -15.8 5 -26 5 C-26.33 13.91 -26.66 22.82 -27 32 C-27.33 32 -27.66 32 -28 32 C-28 22.76 -28 13.52 -28 4 C-28.66 3.67 -29.32 3.34 -30 3 C-15.15 2.505 -15.15 2.505 0 2 C0 1.34 0 0.68 0 0 Z " fill="#959595" transform="translate(430,11)"/>
<path d="M0 0 C0 0.66 0 1.32 0 2 C-0.78375 2.2475 -1.5675 2.495 -2.375 2.75 C-5.39061729 4.18600823 -5.78214656 5.00220692 -7 8 C-9 10 -9 10 -11.9375 10.375 C-15 10 -15 10 -16.875 8 C-17.24625 7.34 -17.6175 6.68 -18 6 C-12.81813307 -0.90915591 -8.30974052 -0.72609383 0 0 Z " fill="#6F6F6F" transform="translate(336,44)"/>
<path d="M0 0 C0.66 0 1.32 0 2 0 C2 0.66 2 1.32 2 2 C4.31 2.33 6.62 2.66 9 3 C9 3.66 9 4.32 9 5 C9.495 4.835 9.99 4.67 10.5 4.5 C14.03444089 3.79311182 17.39690701 3.93994845 21 4 C21.33 4.99 21.66 5.98 22 7 C20.61490247 7.58844013 19.21615562 8.14481422 17.8125 8.6875 C17.03519531 9.00074219 16.25789063 9.31398438 15.45703125 9.63671875 C12.10205341 10.13276476 10.85403124 8.71929593 8 7 C4.86506352 6.85069492 4.86506352 6.85069492 1.6875 7.3125 C0.61886719 7.43238281 -0.44976562 7.55226563 -1.55078125 7.67578125 C-2.35902344 7.78277344 -3.16726563 7.88976563 -4 8 C-3.67 7.01 -3.34 6.02 -3 5 C-2.34 4.67 -1.68 4.34 -1 4 C-0.34786708 1.97536745 -0.34786708 1.97536745 0 0 Z " fill="#757575" transform="translate(303,31)"/>
<path d="M0 0 C3.3 0 6.6 0 10 0 C8 2 8 2 0 4 C0 13.57 0 23.14 0 33 C3.3 33.66 6.6 34.32 10 35 C10 35.66 10 36.32 10 37 C5.74938644 38.41687119 3.28148375 37.19320039 -1 36 C-2.77044646 30.20741707 -2.18449117 23.99359213 -2.1875 18 C-2.19974609 16.71609375 -2.21199219 15.4321875 -2.22460938 14.109375 C-2.22654297 12.87703125 -2.22847656 11.6446875 -2.23046875 10.375 C-2.23457764 9.24835937 -2.23868652 8.12171875 -2.24291992 6.9609375 C-2 4 -2 4 0 0 Z " fill="#656565" transform="translate(52,11)"/>
<path d="M0 0 C3.63 0.33 7.26 0.66 11 1 C11 5.29 11 9.58 11 14 C10.34 14 9.68 14 9 14 C8.34 15.32 7.68 16.64 7 18 C6.67 18 6.34 18 6 18 C5.67 13.38 5.34 8.76 5 4 C4.67 5.98 4.34 7.96 4 10 C3.34 10 2.68 10 2 10 C2.020625 9.195625 2.04125 8.39125 2.0625 7.5625 C2.29633621 5.06645115 2.29633621 5.06645115 1 4 C1 5.98 1 7.96 1 10 C0.67 10 0.34 10 0 10 C0 6.7 0 3.4 0 0 Z " fill="#999999" transform="translate(385,19)"/>
<path d="M0 0 C2.97 0 5.94 0 9 0 C9 1.98 9 3.96 9 6 C9.66 6 10.32 6 11 6 C11 4.02 11 2.04 11 0 C12.32 0 13.64 0 15 0 C15.04241723 2.33294775 15.04092937 4.66702567 15 7 C14 8 14 8 10.62109375 8.09765625 C9.22652923 8.09098369 7.83198257 8.07902532 6.4375 8.0625 C5.37112305 8.05573242 5.37112305 8.05573242 4.28320312 8.04882812 C2.52209987 8.03700864 0.76103964 8.01907263 -1 8 C-0.67 5.36 -0.34 2.72 0 0 Z " fill="#989898" transform="translate(374,30)"/>
<path d="M0 0 C2.43757413 -0.02698422 4.87484915 -0.04683099 7.3125 -0.0625 C8.00279297 -0.07087891 8.69308594 -0.07925781 9.40429688 -0.08789062 C12.5483025 -0.10307906 14.99420019 -0.00193327 18 1 C18 2.32 18 3.64 18 5 C18.66 5.66 19.32 6.32 20 7 C13.73 7 7.46 7 1 7 C1.33 5.68 1.66 4.36 2 3 C1.34 3 0.68 3 0 3 C0 2.01 0 1.02 0 0 Z " fill="#7C7D7A" transform="translate(251,4)"/>
<path d="M0 0 C0.33 1.65 0.66 3.3 1 5 C-9.395 5.495 -9.395 5.495 -20 6 C-19.67 7.98 -19.34 9.96 -19 12 C-19.66 11.67 -20.32 11.34 -21 11 C-21 7.7 -21 4.4 -21 1 C-17.87503282 0.83269774 -14.75002955 0.66612944 -11.625 0.5 C-10.73554688 0.45230469 -9.84609375 0.40460937 -8.9296875 0.35546875 C-7.65351563 0.28779297 -7.65351563 0.28779297 -6.3515625 0.21875 C-5.56604004 0.17685547 -4.78051758 0.13496094 -3.97119141 0.09179688 C-2.64854076 0.03020205 -1.32408408 0 0 0 Z " fill="#484847" transform="translate(273,10)"/>
<path d="M0 0 C0.66 1.32 1.32 2.64 2 4 C0.35 5.32 -1.3 6.64 -3 8 C-1.33657163 9.66342837 0.7825709 9.36048097 3.0625 9.5625 C3.98160156 9.64628906 4.90070313 9.73007812 5.84765625 9.81640625 C6.55792969 9.87699219 7.26820313 9.93757813 8 10 C8 10.33 8 10.66 8 11 C-2.89 11 -13.78 11 -25 11 C-25 10.67 -25 10.34 -25 10 C-24.0925 9.87625 -23.185 9.7525 -22.25 9.625 C-16.56880549 8.53246259 -14.44023278 6.66888734 -11 2 C-10.34 2.33 -9.68 2.66 -9 3 C-11.875 7.875 -11.875 7.875 -13 9 C-11.02 9 -9.04 9 -7 9 C-6.731875 8.071875 -6.46375 7.14375 -6.1875 6.1875 C-3.88235294 0 -3.88235294 0 0 0 Z " fill="#8D8D8D" transform="translate(342,46)"/>
<path d="M0 0 C2.5330124 0.42216873 4.62703693 0.78865426 6.875 2.0625 C9.92620787 3.40862112 12.71039861 3.12652313 16 3 C16 3.66 16 4.32 16 5 C15.34 5 14.68 5 14 5 C14 5.66 14 6.32 14 7 C14.99 7.33 15.98 7.66 17 8 C15.02 9.65 13.04 11.3 11 13 C10.01 12.34 9.02 11.68 8 11 C8 10.34 8 9.68 8 9 C6.68 8.34 5.36 7.68 4 7 C4 6.01 4 5.02 4 4 C2.68 4 1.36 4 0 4 C0 2.68 0 1.36 0 0 Z " fill="#888888" transform="translate(307,37)"/>
<path d="M0 0 C0.33 1.32 0.66 2.64 1 4 C2.32 4.33 3.64 4.66 5 5 C5.13526616 7.5850867 5.23417653 10.16308752 5.3125 12.75 C5.3753418 13.84441406 5.3753418 13.84441406 5.43945312 14.9609375 C5.48828125 17.109375 5.48828125 17.109375 5 21 C2.48046875 23.515625 2.48046875 23.515625 0 25 C-0.66 24.34 -1.32 23.68 -2 23 C-3.98821313 22.60235737 -5.98944339 22.26224651 -8 22 C-8 21.67 -8 21.34 -8 21 C-4.04 20.67 -0.08 20.34 4 20 C4 18.68 4 17.36 4 16 C2.68 16.33 1.36 16.66 0 17 C0 16.01 0 15.02 0 14 C0.99 13.67 1.98 13.34 3 13 C3 11.68 3 10.36 3 9 C2.01 8.67 1.02 8.34 0 8 C0 7.01 0 6.02 0 5 C-2.97 4.67 -5.94 4.34 -9 4 C-9 3.67 -9 3.34 -9 3 C-7.88625 2.87625 -6.7725 2.7525 -5.625 2.625 C-1.96896323 2.3534187 -1.96896323 2.3534187 0 0 Z " fill="#5D5D5D" transform="translate(280,17)"/>
<path d="M0 0 C3.96 0 7.92 0 12 0 C12.33 0.66 12.66 1.32 13 2 C11.35 2.66 9.7 3.32 8 4 C8 4.66 8 5.32 8 6 C6.02253397 6.73080266 4.01927511 7.39421747 2 8 C1.34 7.67 0.68 7.34 0 7 C-1.99960012 6.960008 -4.00047242 6.95653201 -6 7 C-6 6.01 -6 5.02 -6 4 C-4.02 3.67 -2.04 3.34 0 3 C0 2.01 0 1.02 0 0 Z " fill="#7C7C7D" transform="translate(116,3)"/>
<path d="M0 0 C1.65 0 3.3 0 5 0 C5 0.66 5 1.32 5 2 C6.65 2.33 8.3 2.66 10 3 C10 5.31 10 7.62 10 10 C9.01 10 8.02 10 7 10 C7 10.99 7 11.98 7 13 C4.69 13 2.38 13 0 13 C0 10.69 0 8.38 0 6 C1.32 6 2.64 6 4 6 C4 6.66 4 7.32 4 8 C4.99 8.33 5.98 8.66 7 9 C6.67 8.01 6.34 7.02 6 6 C6.33 5.34 6.66 4.68 7 4 C4.69 4 2.38 4 0 4 C0 2.68 0 1.36 0 0 Z " fill="#8F8F8F" transform="translate(247,23)"/>
<path d="M0 0 C0.99386719 0.10183594 1.98773438 0.20367188 3.01171875 0.30859375 C3.77097656 0.39238281 4.53023438 0.47617187 5.3125 0.5625 C5.3125 2.8725 5.3125 5.1825 5.3125 7.5625 C2.0125 7.5625 -1.2875 7.5625 -4.6875 7.5625 C-4.6875 6.9025 -4.6875 6.2425 -4.6875 5.5625 C-6.0075 5.5625 -7.3275 5.5625 -8.6875 5.5625 C-8.6875 3.9125 -8.6875 2.2625 -8.6875 0.5625 C-5.3763987 -0.54120043 -3.44001051 -0.36423641 0 0 Z " fill="#888888" transform="translate(354.6875,25.4375)"/>
<path d="M0 0 C4.53287116 3.73295272 8.37382288 7.38486548 12 12 C8.04 12 4.08 12 0 12 C0 8.04 0 4.08 0 0 Z " fill="#8E8E8E" transform="translate(93,34)"/>
<path d="M0 0 C3.96 0 7.92 0 12 0 C8.26704728 4.53287116 4.61513452 8.37382288 0 12 C0 8.04 0 4.08 0 0 Z " fill="#8D8D8D" transform="translate(93,13)"/>
<path d="M0 0 C2 2 2 2 2 5 C0.68 4.67 -0.64 4.34 -2 4 C-2 4.66 -2 5.32 -2 6 C-1.01 6.33 -0.02 6.66 1 7 C0.01 7.33 -0.98 7.66 -2 8 C-2.66 6.68 -3.32 5.36 -4 4 C-4.99 4 -5.98 4 -7 4 C-7 4.66 -7 5.32 -7 6 C-7.99 6.33 -8.98 6.66 -10 7 C-10 6.34 -10 5.68 -10 5 C-11.98 5.33 -13.96 5.66 -16 6 C-15.67 4.68 -15.34 3.36 -15 2 C-5.00312891 -0.48811014 -5.00312891 -0.48811014 0 0 Z " fill="#7F7C7D" transform="translate(224,11)"/>
<path d="M0 0 C0.33 0 0.66 0 1 0 C1.33 1.98 1.66 3.96 2 6 C0.02 6 -1.96 6 -4 6 C-4 7.65 -4 9.3 -4 11 C-1.69 11 0.62 11 3 11 C3 12.65 3 14.3 3 16 C1.02 16 -0.96 16 -3 16 C-2.01 15.67 -1.02 15.34 0 15 C0 14.34 0 13.68 0 13 C-1.32 13 -2.64 13 -4 13 C-4 15.31 -4 17.62 -4 20 C-4.66 20.33 -5.32 20.66 -6 21 C-6 15.72 -6 10.44 -6 5 C-4.35 4.34 -2.7 3.68 -1 3 C-0.67 2.01 -0.34 1.02 0 0 Z " fill="#5A5A5A" transform="translate(251,16)"/>
<path d="M0 0 C2 2 2 2 2.16015625 5.1875 C2.12792969 6.445625 2.09570312 7.70375 2.0625 9 C1.74750315 13.66444067 1.74750315 13.66444067 3 18 C2.0625 20.625 2.0625 20.625 1 23 C0.01 22.34 -0.98 21.68 -2 21 C-2.37231445 19.06054688 -2.37231445 19.06054688 -2.36328125 16.71875 C-2.36263672 15.87699219 -2.36199219 15.03523438 -2.36132812 14.16796875 C-2.34521484 13.28753906 -2.32910156 12.40710937 -2.3125 11.5 C-2.31572266 10.61957031 -2.31894531 9.73914062 -2.32226562 8.83203125 C-2.26697032 2.26697032 -2.26697032 2.26697032 0 0 Z " fill="#696969" transform="translate(345,18)"/>
<path d="M0 0 C0.33 0.99 0.66 1.98 1 3 C4.3 2.67 7.6 2.34 11 2 C11.66 3.32 12.32 4.64 13 6 C9.04180389 6.08678303 5.08385066 6.14031733 1.125 6.1875 C-0.56689453 6.22520508 -0.56689453 6.22520508 -2.29296875 6.26367188 C-3.90751953 6.27817383 -3.90751953 6.27817383 -5.5546875 6.29296875 C-7.04718018 6.31653442 -7.04718018 6.31653442 -8.56982422 6.34057617 C-9.37178223 6.22818604 -10.17374023 6.1157959 -11 6 C-11.66 5.01 -12.32 4.02 -13 3 C-8.71 3 -4.42 3 0 3 C0 2.01 0 1.02 0 0 Z " fill="#575757" transform="translate(235,51)"/>
<path d="M0 0 C0.33 0.66 0.66 1.32 1 2 C1.66 2 2.32 2 3 2 C3 2.66 3 3.32 3 4 C3.66 4 4.32 4 5 4 C5.08096803 5.45742463 5.13917774 6.91612807 5.1875 8.375 C5.22230469 9.18710937 5.25710938 9.99921875 5.29296875 10.8359375 C5.19628906 11.55007812 5.09960938 12.26421875 5 13 C1.77208445 15.1519437 0.71599191 15.20086443 -3 15 C-3 14.34 -3 13.68 -3 13 C-3.99 12.67 -4.98 12.34 -6 12 C-5.67 11.34 -5.34 10.68 -5 10 C-2.69 10 -0.38 10 2 10 C1.81584568 7.05908413 1.81584568 7.05908413 1 4 C-0.95163118 2.56362302 -0.95163118 2.56362302 -3 2 C-2.01 2 -1.02 2 0 2 C0 1.34 0 0.68 0 0 Z " fill="#828282" transform="translate(422,23)"/>
<path d="M0 0 C0.99 0 1.98 0 3 0 C3.309375 0.804375 3.61875 1.60875 3.9375 2.4375 C4.76335345 4.89080405 4.76335345 4.89080405 6 6 C6.70040054 10.05168414 6.72173851 13.61294553 4.80078125 17.3046875 C2.20541568 20.87413234 0.10116102 23.22580208 -4 25 C-4 24.34 -4 23.68 -4 23 C-3.34 23 -2.68 23 -2 23 C-2 22.34 -2 21.68 -2 21 C-3.65 21 -5.3 21 -7 21 C-7 20.67 -7 20.34 -7 20 C-5.02 19.67 -3.04 19.34 -1 19 C-1 18.34 -1 17.68 -1 17 C0.32 16.34 1.64 15.68 3 15 C3.08131463 13.56344146 3.13933559 12.1255517 3.1875 10.6875 C3.22230469 9.88699219 3.25710938 9.08648437 3.29296875 8.26171875 C2.93256507 5.47940234 1.99343154 4.86786105 0 3 C0 2.01 0 1.02 0 0 Z " fill="#7E7E7E" transform="translate(325,19)"/>
<path d="M0 0 C0.33 1.32 0.66 2.64 1 4 C-3.4378561 5.11165232 -7.76956386 5.11527763 -12.3125 5.0625 C-13.05306641 5.05798828 -13.79363281 5.05347656 -14.55664062 5.04882812 C-16.37112899 5.03712175 -18.18557534 5.01918898 -20 5 C-14.17876272 0.20372098 -7.32804179 -0.31183157 0 0 Z " fill="#7E7E7E" transform="translate(148,15)"/>
<path d="M0 0 C3.3 0 6.6 0 10 0 C9.67 2.64 9.34 5.28 9 8 C6.03 8 3.06 8 0 8 C0 5.36 0 2.72 0 0 Z " fill="#969696" transform="translate(374,21)"/>
<path d="M0 0 C0.66 0 1.32 0 2 0 C2 0.99 2 1.98 2 3 C3.32 3.33 4.64 3.66 6 4 C5.67 5.65 5.34 7.3 5 9 C4.01 9 3.02 9 2 9 C2 9.99 2 10.98 2 12 C3.32 11.67 4.64 11.34 6 11 C6 12.32 6 13.64 6 15 C4.02 15 2.04 15 0 15 C0 10.05 0 5.1 0 0 Z " fill="#3B3B3B" transform="translate(278,22)"/>
<path d="M0 0 C0.66 0.33 1.32 0.66 2 1 C2 1.66 2 2.32 2 3 C3.32 3 4.64 3 6 3 C6 3.66 6 4.32 6 5 C5.01 5.33 4.02 5.66 3 6 C3.66 8.31 4.32 10.62 5 13 C2.69 13.33 0.38 13.66 -2 14 C-2.05410687 12.22950311 -2.09284119 10.45853151 -2.125 8.6875 C-2.14820313 7.70136719 -2.17140625 6.71523438 -2.1953125 5.69921875 C-2 3 -2 3 0 0 Z " fill="#717171" transform="translate(290,12)"/>
<path d="M0 0 C4.5121872 5.64023399 4.5121872 5.64023399 4.3125 10.6875 C4.28800781 11.64011719 4.26351563 12.59273437 4.23828125 13.57421875 C4 16 4 16 3 18 C2.01 18 1.02 18 0 18 C0 12.06 0 6.12 0 0 Z " fill="#909090" transform="translate(443,19)"/>
<path d="M0 0 C0.66 0.33 1.32 0.66 2 1 C2 1.66 2 2.32 2 3 C2.99 3 3.98 3 5 3 C5 3.99 5 4.98 5 6 C3.68 6.33 2.36 6.66 1 7 C1 6.34 1 5.68 1 5 C-3.29 5.99 -7.58 6.98 -12 8 C-12 5.69 -12 3.38 -12 1 C-10.046875 1.52083333 -8.09375 2.04166667 -6.140625 2.5625 C-3.71098139 3.13349349 -3.71098139 3.13349349 0 3 C0 2.01 0 1.02 0 0 Z " fill="#9B9B9B" transform="translate(301,25)"/>
<path d="M0 0 C0.72767578 0.00386719 1.45535156 0.00773437 2.20507812 0.01171875 C2.91341797 0.00785156 3.62175781 0.00398438 4.3515625 0 C8.51468545 0.00768813 12.41664725 0.32299073 16.51757812 1.13671875 C16.51757812 1.79671875 16.51757812 2.45671875 16.51757812 3.13671875 C13.43432454 3.19494405 10.35121308 3.23039009 7.26757812 3.26171875 C5.95853516 3.28685547 5.95853516 3.28685547 4.62304688 3.3125 C3.77871094 3.31894531 2.934375 3.32539062 2.06445312 3.33203125 C1.2894043 3.34250488 0.51435547 3.35297852 -0.28417969 3.36376953 C-2.74125726 3.10998431 -4.3555373 2.36116027 -6.48242188 1.13671875 C-4.70768416 -0.63801896 -2.36069172 0.00440017 0 0 Z " fill="#8C8C8C" transform="translate(261.482421875,37.86328125)"/>
<path d="M0 0 C2.64 0 5.28 0 8 0 C7.67 0.66 7.34 1.32 7 2 C6.34 2 5.68 2 5 2 C5 4.31 5 6.62 5 9 C3.68 9 2.36 9 1 9 C0.67 11.31 0.34 13.62 0 16 C-0.33 16 -0.66 16 -1 16 C-1.02692484 13.70839681 -1.04636124 11.41670454 -1.0625 9.125 C-1.07410156 7.84882813 -1.08570313 6.57265625 -1.09765625 5.2578125 C-1 2 -1 2 0 0 Z " fill="#9C9C9C" transform="translate(148,19)"/>
<path d="M0 0 C0 2.62834278 -0.19789762 5.08186701 -0.5 7.6875 C-0.5928125 8.49574219 -0.685625 9.30398437 -0.78125 10.13671875 C-0.8534375 10.75160156 -0.925625 11.36648437 -1 12 C-2.98 11.34 -4.96 10.68 -7 10 C-5.25 6.125 -5.25 6.125 -3 5 C-4.65 5 -6.3 5 -8 5 C-8 3.68 -8 2.36 -8 1 C-5.29120665 -0.35439668 -2.99066732 -0.06501451 0 0 Z " fill="#A3A3A3" transform="translate(139,21)"/>
<path d="M0 0 C1.32 0.66 2.64 1.32 4 2 C4 9.92 4 17.84 4 26 C3.67 26 3.34 26 3 26 C2.67 22.7 2.34 19.4 2 16 C1.67 16 1.34 16 1 16 C1 12.04 1 8.08 1 4 C0.34 4 -0.32 4 -1 4 C-0.67 2.68 -0.34 1.36 0 0 Z " fill="#464646" transform="translate(232,15)"/>
<path d="M0 0 C6.27 0 12.54 0 19 0 C18.01 0.33 17.02 0.66 16 1 C16 1.99 16 2.98 16 4 C15.34 4 14.68 4 14 4 C14 3.34 14 2.68 14 2 C13.01 2 12.02 2 11 2 C11 2.66 11 3.32 11 4 C10.38125 3.814375 9.7625 3.62875 9.125 3.4375 C6.95839822 2.76313824 6.95839822 2.76313824 5 4 C5 3.34 5 2.68 5 2 C2.94729537 3.84188612 2.94729537 3.84188612 2 6 C1.01 6.495 1.01 6.495 0 7 C0 4.69 0 2.38 0 0 Z " fill="#252525" transform="translate(258,21)"/>
<path d="M0 0 C0.75410156 0.00451172 1.50820313 0.00902344 2.28515625 0.01367188 C4.14847127 0.02546501 6.01174555 0.04340058 7.875 0.0625 C7.875 0.3925 7.875 0.7225 7.875 1.0625 C6.62783203 1.15337891 6.62783203 1.15337891 5.35546875 1.24609375 C3.72544922 1.37177734 3.72544922 1.37177734 2.0625 1.5 C0.98355469 1.58121094 -0.09539062 1.66242187 -1.20703125 1.74609375 C-4.18489905 1.96462461 -4.18489905 1.96462461 -7.125 3.0625 C-6.795 3.7225 -6.465 4.3825 -6.125 5.0625 C-6.5625 7.1875 -6.5625 7.1875 -7.125 9.0625 C-8.775 8.7325 -10.425 8.4025 -12.125 8.0625 C-12.125 7.4025 -12.125 6.7425 -12.125 6.0625 C-13.775 6.0625 -15.425 6.0625 -17.125 6.0625 C-17.125 5.7325 -17.125 5.4025 -17.125 5.0625 C-14.815 5.0625 -12.505 5.0625 -10.125 5.0625 C-10.125 3.7425 -10.125 2.4225 -10.125 1.0625 C-6.93675432 -0.53162284 -3.49603338 -0.03924735 0 0 Z " fill="#6E6E6E" transform="translate(264.125,16.9375)"/>
<path d="M0 0 C1.19882812 0.00483398 1.19882812 0.00483398 2.421875 0.00976562 C3.246875 0.01814453 4.071875 0.02652344 4.921875 0.03515625 C5.76234375 0.03966797 6.6028125 0.04417969 7.46875 0.04882812 C9.53648901 0.06057664 11.60419124 0.07851103 13.671875 0.09765625 C13.671875 0.75765625 13.671875 1.41765625 13.671875 2.09765625 C6.70408097 3.42485511 -0.25801411 3.18591006 -7.328125 3.09765625 C-7.658125 2.43765625 -7.988125 1.77765625 -8.328125 1.09765625 C-5.47652109 0.28331482 -2.96186369 -0.02115617 0 0 Z " fill="#909090" transform="translate(264.328125,17.90234375)"/>
<path d="M0 0 C0.99 0.495 0.99 0.495 2 1 C2 2.98 2 4.96 2 7 C3.32 7 4.64 7 6 7 C6 4.69 6 2.38 6 0 C6.33 0 6.66 0 7 0 C7 2.31 7 4.62 7 7 C8.32 7.33 9.64 7.66 11 8 C9.68 8 8.36 8 7 8 C7 10.31 7 12.62 7 15 C6.67 15 6.34 15 6 15 C6 12.69 6 10.38 6 8 C4.68 8 3.36 8 2 8 C2 10.31 2 12.62 2 15 C1.01 15.495 1.01 15.495 0 16 C0 10.72 0 5.44 0 0 Z " fill="#828282" transform="translate(372,22)"/>
<path d="M0 0 C3.96 0 7.92 0 12 0 C12 0.99 12 1.98 12 3 C11.01 3 10.02 3 9 3 C9 3.66 9 4.32 9 5 C9.66 5 10.32 5 11 5 C11 5.99 11 6.98 11 8 C9.35 8 7.7 8 6 8 C5.67 6.35 5.34 4.7 5 3 C4.360625 2.87625 3.72125 2.7525 3.0625 2.625 C2.381875 2.41875 1.70125 2.2125 1 2 C0.67 1.34 0.34 0.68 0 0 Z " fill="#343434" transform="translate(219,25)"/>
<path d="M0 0 C2 0 2 0 3.5859375 1.57421875 C4.17632812 2.27160156 4.76671875 2.96898437 5.375 3.6875 C6.30119141 4.77611328 6.30119141 4.77611328 7.24609375 5.88671875 C9.19461463 8.23449112 11.1215998 10.59564775 13 13 C9.37 13 5.74 13 2 13 C2.33 12.34 2.66 11.68 3 11 C4.32 11 5.64 11 7 11 C6.566875 10.51789062 6.13375 10.03578125 5.6875 9.5390625 C5.130625 8.90742187 4.57375 8.27578125 4 7.625 C3.443125 6.99851562 2.88625 6.37203125 2.3125 5.7265625 C1 4 1 4 1 2 C0.34 1.67 -0.32 1.34 -1 1 C-0.67 0.67 -0.34 0.34 0 0 Z " fill="#232323" transform="translate(273,42)"/>
<path d="M0 0 C3.3 0 6.6 0 10 0 C8 2 8 2 0 5 C-0.33 13.91 -0.66 22.82 -1 32 C-1.33 32 -1.66 32 -2 32 C-2.05802751 27.41671978 -2.09360593 22.83353396 -2.125 18.25 C-2.14175781 16.94804687 -2.15851562 15.64609375 -2.17578125 14.3046875 C-2.18222656 13.05429687 -2.18867187 11.80390625 -2.1953125 10.515625 C-2.20578613 9.36352539 -2.21625977 8.21142578 -2.22705078 7.02441406 C-2 4 -2 4 0 0 Z " fill="#747474" transform="translate(52,11)"/>
<path d="M0 0 C3.63 0 7.26 0 11 0 C5.19318182 7.25852273 5.19318182 7.25852273 1 8 C0.01 8.495 0.01 8.495 -1 9 C-1 7.68 -1 6.36 -1 5 C0.32 4.67 1.64 4.34 3 4 C3 3.34 3 2.68 3 2 C2.01 1.67 1.02 1.34 0 1 C0 0.67 0 0.34 0 0 Z " fill="#383838" transform="translate(275,4)"/>
<path d="M0 0 C0 0.66 0 1.32 0 2 C-0.78375 2.2475 -1.5675 2.495 -2.375 2.75 C-5.39061729 4.18600823 -5.78214656 5.00220692 -7 8 C-9 10 -9 10 -11.9375 10.375 C-15 10 -15 10 -16.875 8 C-17.24625 7.34 -17.6175 6.68 -18 6 C-14.72724974 6 -12.153368 6.29925156 -9 7 C-8.54625 6.030625 -8.0925 5.06125 -7.625 4.0625 C-5.35304282 -0.21926545 -4.89724237 0 0 0 Z " fill="#575757" transform="translate(336,44)"/>
<path d="M0 0 C-0.804375 0.45375 -1.60875 0.9075 -2.4375 1.375 C-5.08856572 2.74725665 -5.08856572 2.74725665 -6 5 C-6.66 5 -7.32 5 -8 5 C-8 6.32 -8 7.64 -8 9 C-8.66 9 -9.32 9 -10 9 C-10.33 6.03 -10.66 3.06 -11 0 C-3.375 -2.25 -3.375 -2.25 0 0 Z " fill="#747474" transform="translate(301,32)"/>
<path d="M0 0 C0.33 0 0.66 0 1 0 C2.59162079 5.57067277 3.20674944 10.21101581 3 16 C1.35 16 -0.3 16 -2 16 C-2.33 13.69 -2.66 11.38 -3 9 C-2.01 8.67 -1.02 8.34 0 8 C0 5.36 0 2.72 0 0 Z " fill="#9B9B9B" transform="translate(126,16)"/>
<path d="M0 0 C6.76594019 -0.11381955 13.28837062 0.11978631 20 1 C19.67 1.66 19.34 2.32 19 3 C16.20826945 3.02690104 13.41679652 3.04679053 10.625 3.0625 C9.43390625 3.07506836 9.43390625 3.07506836 8.21875 3.08789062 C2.2265625 3.11328125 2.2265625 3.11328125 0 2 C0 1.34 0 0.68 0 0 Z " fill="#313030" transform="translate(253,41)"/>
<path d="M0 0 C0.66 0 1.32 0 2 0 C2.33 0.66 2.66 1.32 3 2 C6.04581269 2.46954261 6.04581269 2.46954261 9.5625 2.625 C10.76003906 2.69976563 11.95757812 2.77453125 13.19140625 2.8515625 C14.11824219 2.90054687 15.04507812 2.94953125 16 3 C16 3.66 16 4.32 16 5 C11.38 5 6.76 5 2 5 C2.33 5.99 2.66 6.98 3 8 C2.01 8 1.02 8 0 8 C0 5.36 0 2.72 0 0 Z " fill="#989898" transform="translate(447,27)"/>
<path d="M0 0 C0.66 0 1.32 0 2 0 C2 0.66 2 1.32 2 2 C4.97 2.495 4.97 2.495 8 3 C6.21825212 5.30142435 4.83695835 6.80034391 1.953125 7.48828125 C-0.0246611 7.72323102 -2.01271872 7.86751458 -4 8 C-3.67 7.01 -3.34 6.02 -3 5 C-2.34 4.67 -1.68 4.34 -1 4 C-0.34786708 1.97536745 -0.34786708 1.97536745 0 0 Z " fill="#707070" transform="translate(303,31)"/>
<path d="M0 0 C0.66 1.32 1.32 2.64 2 4 C0.35 5.32 -1.3 6.64 -3 8 C-2.67 8.66 -2.34 9.32 -2 10 C-3.65 9.67 -5.3 9.34 -7 9 C-4.4 0 -4.4 0 0 0 Z " fill="#7D7A79" transform="translate(342,46)"/>
<path d="M0 0 C0.91007813 0.00902344 1.82015625 0.01804687 2.7578125 0.02734375 C3.45648438 0.03894531 4.15515625 0.05054687 4.875 0.0625 C4.875 0.3925 4.875 0.7225 4.875 1.0625 C3.225 1.3925 1.575 1.7225 -0.125 2.0625 C1.525 2.3925 3.175 2.7225 4.875 3.0625 C4.875 4.3825 4.875 5.7025 4.875 7.0625 C3.555 7.3925 2.235 7.7225 0.875 8.0625 C0.545 7.4025 0.215 6.7425 -0.125 6.0625 C-1.115 5.7325 -2.105 5.4025 -3.125 5.0625 C-3.125 4.0725 -3.125 3.0825 -3.125 2.0625 C-4.445 1.7325 -5.765 1.4025 -7.125 1.0625 C-4.60024538 -0.19987731 -2.81299534 -0.03606404 0 0 Z " fill="#1B1B1B" transform="translate(220.125,23.9375)"/>
<path d="M0 0 C2.125 -0.4375 2.125 -0.4375 5 0 C6.72454429 1.60382619 8.12781259 3.31612596 9.5703125 5.17578125 C10.94218771 6.92623404 12.39861586 8.46020755 14 10 C11.69 9.67 9.38 9.34 7 9 C7 8.01 7 7.02 7 6 C6.34 6 5.68 6 5 6 C5 5.34 5 4.68 5 4 C4.34 4 3.68 4 3 4 C3 3.34 3 2.68 3 2 C2.01 1.67 1.02 1.34 0 1 C0 0.67 0 0.34 0 0 Z " fill="#595A57" transform="translate(323,5)"/>
<path d="M0 0 C4.29 0 8.58 0 13 0 C13 0.66 13 1.32 13 2 C14.32 2.33 15.64 2.66 17 3 C15.41773035 3.19627391 13.83410729 3.38165538 12.25 3.5625 C11.36828125 3.66691406 10.4865625 3.77132812 9.578125 3.87890625 C7.11567549 3.99456676 5.33461936 3.73638695 3 3 C3 2.34 3 1.68 3 1 C2.01 0.67 1.02 0.34 0 0 Z " fill="#A5A5A5" transform="translate(420,45)"/>
<path d="M0 0 C2.64 0 5.28 0 8 0 C8.66 1.32 9.32 2.64 10 4 C5.125 3.125 5.125 3.125 4 2 C3.34 3.98 2.68 5.96 2 8 C3.65 8.33 5.3 8.66 7 9 C7 9.33 7 9.66 7 10 C4.69 10 2.38 10 0 10 C0 6.7 0 3.4 0 0 Z " fill="#353535" transform="translate(207,24)"/>
<path d="M0 0 C0 0.99 0 1.98 0 3 C-6.6 3 -13.2 3 -20 3 C-20 2.34 -20 1.68 -20 1 C-17.04170322 0.832662 -14.08336635 0.66609948 -11.125 0.5 C-9.86236328 0.42845703 -9.86236328 0.42845703 -8.57421875 0.35546875 C-7.76855469 0.31035156 -6.96289062 0.26523438 -6.1328125 0.21875 C-5.38918457 0.17685547 -4.64555664 0.13496094 -3.87939453 0.09179688 C-2.58744125 0.0286929 -1.29349349 0 0 0 Z " fill="#3C3C3A" transform="translate(273,10)"/>
<path d="M0 0 C1.23363281 0.01353516 1.23363281 0.01353516 2.4921875 0.02734375 C4.49492083 0.05063135 6.49750154 0.08649041 8.5 0.125 C8.5 0.455 8.5 0.785 8.5 1.125 C-9.35649203 3.42112756 -9.35649203 3.42112756 -17.5 3.125 C-17.5 2.795 -17.5 2.465 -17.5 2.125 C-11.50325593 0.37824198 -6.22635779 -0.13182842 0 0 Z " fill="#7E7E7E" transform="translate(78.5,3.875)"/>
<path d="M0 0 C2.64 0.33 5.28 0.66 8 1 C8 1.66 8 2.32 8 3 C2.03325384 4.32594359 -3.92583615 4.0884587 -10 4 C-10 3.34 -10 2.68 -10 2 C-6.7 2 -3.4 2 0 2 C0 1.34 0 0.68 0 0 Z " fill="#696866" transform="translate(261,51)"/>
<path d="M0 0 C1.8871875 0.061875 1.8871875 0.061875 3.8125 0.125 C2.8225 1.61 2.8225 1.61 1.8125 3.125 C0.4925 3.125 -0.8275 3.125 -2.1875 3.125 C-2.1875 5.105 -2.1875 7.085 -2.1875 9.125 C-2.8475 9.125 -3.5075 9.125 -4.1875 9.125 C-4.1875 7.145 -4.1875 5.165 -4.1875 3.125 C-5.1775 2.795 -6.1675 2.465 -7.1875 2.125 C-4.09861478 0.06574319 -3.47814073 -0.1140374 0 0 Z " fill="#939393" transform="translate(301.1875,38.875)"/>
<path d="M0 0 C4.95 0 9.9 0 15 0 C15.33 1.65 15.66 3.3 16 5 C15.34 5 14.68 5 14 5 C14 4.01 14 3.02 14 2 C9.71 2 5.42 2 1 2 C0.67 1.34 0.34 0.68 0 0 Z " fill="#A09F9E" transform="translate(255,48)"/>
<path d="M0 0 C5.78461538 3.32307692 5.78461538 3.32307692 6.875 6.75 C6.936875 7.86375 6.936875 7.86375 7 9 C1.00274725 6.89285714 1.00274725 6.89285714 -1 4 C-0.6875 1.8125 -0.6875 1.8125 0 0 Z " fill="#B1B1B1" transform="translate(309,42)"/>
<path d="M0 0 C0.99 0.33 1.98 0.66 3 1 C2.07347299 2.17539996 1.13336613 3.34010577 0.1875 4.5 C-0.33457031 5.1496875 -0.85664063 5.799375 -1.39453125 6.46875 C-3 8 -3 8 -6 8 C-5.66354211 4.85972637 -4.94763914 3.94901705 -2.625 1.6875 C-1.75875 1.130625 -0.8925 0.57375 0 0 Z " fill="#B5B5B5" transform="translate(314,8)"/>
<path d="M0 0 C1.17369141 0.15082031 1.17369141 0.15082031 2.37109375 0.3046875 C3.15613281 0.38976563 3.94117188 0.47484375 4.75 0.5625 C6.80859375 1.1796875 6.80859375 1.1796875 8.80859375 4.1796875 C1.87859375 3.6846875 1.87859375 3.6846875 -5.19140625 3.1796875 C-2.19140625 0.1796875 -2.19140625 0.1796875 0 0 Z " fill="#565152" transform="translate(214.19140625,53.8203125)"/>
<path d="M0 0 C2.4377963 -0.05397335 4.87439685 -0.09365616 7.3125 -0.125 C8.00279297 -0.14175781 8.69308594 -0.15851563 9.40429688 -0.17578125 C13.17135396 -0.21217794 14.78431704 -0.14378864 18 2 C16.68 2 15.36 2 14 2 C14 2.66 14 3.32 14 4 C13.01 4 12.02 4 11 4 C11 3.34 11 2.68 11 2 C7.37 2 3.74 2 0 2 C0 1.34 0 0.68 0 0 Z " fill="#666764" transform="translate(251,4)"/>
<path d="M0 0 C0.33 0.66 0.66 1.32 1 2 C-0.32 2 -1.64 2 -3 2 C-3.33 3.32 -3.66 4.64 -4 6 C-5.32 5.67 -6.64 5.34 -8 5 C-7.625 3.0625 -7.625 3.0625 -7 1 C-4.53721199 -0.231394 -2.7204945 -0.07159196 0 0 Z " fill="#A3A3A3" transform="translate(423,26)"/>
<path d="M0 0 C0.66 0.66 1.32 1.32 2 2 C1.04882866 3.1725131 0.08882991 4.33787015 -0.875 5.5 C-1.40867187 6.1496875 -1.94234375 6.799375 -2.4921875 7.46875 C-2.98976563 7.9740625 -3.48734375 8.479375 -4 9 C-4.66 9 -5.32 9 -6 9 C-5.69381595 5.32579134 -5.24228216 4.21864487 -2.4375 1.6875 C-1.633125 1.130625 -0.82875 0.57375 0 0 Z " fill="#ABAAAA" transform="translate(340,42)"/>
<path d="M0 0 C2.97 0 5.94 0 9 0 C9 1.32 9 2.64 9 4 C6.36 3.67 3.72 3.34 1 3 C0.67 2.01 0.34 1.02 0 0 Z " fill="#909090" transform="translate(351,21)"/>
<path d="M0 0 C0.99 1.32 1.98 2.64 3 4 C2.67 4.66 2.34 5.32 2 6 C0.02 6 -1.96 6 -4 6 C-4.33 4.68 -4.66 3.36 -5 2 C-3.35 2 -1.7 2 0 2 C0 1.34 0 0.68 0 0 Z " fill="#646464" transform="translate(323,17)"/>
<path d="M0 0 C3.36179774 1.44077046 5.59156268 3.24750021 8 6 C8 6.66 8 7.32 8 8 C4.21479387 7.45925627 2.40822445 5.92427254 0 3 C0 2.01 0 1.02 0 0 Z " fill="#AFADAC" transform="translate(334,8)"/>
<path d="M0 0 C1.33333333 0.33333333 2.66666667 0.66666667 4 1 C4.70640625 1.17660156 5.4128125 1.35320313 6.140625 1.53515625 C8.09375 2.0234375 10.046875 2.51171875 12 3 C12 3.33 12 3.66 12 4 C7.38 4 2.76 4 -2 4 C-1.34 3.67 -0.68 3.34 0 3 C0 2.01 0 1.02 0 0 Z " fill="#6D6D6D" transform="translate(124,53)"/>
<path d="M0 0 C0.33 0.66 0.66 1.32 1 2 C1.66 2 2.32 2 3 2 C3 2.66 3 3.32 3 4 C3.66 4 4.32 4 5 4 C5 5.98 5 7.96 5 10 C4.01 10 3.02 10 2 10 C1.9175 9.05125 1.835 8.1025 1.75 7.125 C1.34925077 3.89538209 1.34925077 3.89538209 -1.0625 2.625 C-1.701875 2.41875 -2.34125 2.2125 -3 2 C-2.01 2 -1.02 2 0 2 C0 1.34 0 0.68 0 0 Z " fill="#777777" transform="translate(422,23)"/>
<path d="M0 0 C0.66 0.33 1.32 0.66 2 1 C0.73046875 2.46484375 -0.5390625 3.9296875 -1.80859375 5.39453125 C-3.20871231 7.10712971 -3.20871231 7.10712971 -4 10 C-4.99 10 -5.98 10 -7 10 C-6.67 8.35 -6.34 6.7 -6 5 C-5.01 4.67 -4.02 4.34 -3 4 C-3 3.34 -3 2.68 -3 2 C-2.01 1.34 -1.02 0.68 0 0 Z " fill="#7D7D7D" transform="translate(201,46)"/>
<path d="M0 0 C0.99 0 1.98 0 3 0 C3.33 0.66 3.66 1.32 4 2 C4.99 2.66 5.98 3.32 7 4 C5.625 5.5 5.625 5.5 4 7 C3.34 7 2.68 7 2 7 C2 6.01 2 5.02 2 4 C1.01 3.67 0.02 3.34 -1 3 C-0.67 2.01 -0.34 1.02 0 0 Z " fill="#838383" transform="translate(347,31)"/>
<path d="M0 0 C0.66 0.33 1.32 0.66 2 1 C2 3.31 2 5.62 2 8 C1.67 7.34 1.34 6.68 1 6 C-0.32 6 -1.64 6 -3 6 C-3 4.35 -3 2.7 -3 1 C-2.01 0.67 -1.02 0.34 0 0 Z " fill="#9E9E9E" transform="translate(349,25)"/>
<path d="M0 0 C0.33 0.66 0.66 1.32 1 2 C2.98 2 4.96 2 7 2 C7 2.66 7 3.32 7 4 C5.02 4.33 3.04 4.66 1 5 C1.33 6.98 1.66 8.96 2 11 C1.34 10.67 0.68 10.34 0 10 C0 6.7 0 3.4 0 0 Z " fill="#515150" transform="translate(252,11)"/>
<path d="M0 0 C1.125 3.75 1.125 3.75 0 6 C1.7015625 6.185625 1.7015625 6.185625 3.4375 6.375 C4.613125 6.58125 5.78875 6.7875 7 7 C7.33 7.66 7.66 8.32 8 9 C5.36 9 2.72 9 0 9 C-1.36623674 6.26752652 -1.128426 4.01801098 -1 1 C-0.67 0.67 -0.34 0.34 0 0 Z " fill="#4E4E4E" transform="translate(253,37)"/>
<path d="M0 0 C2.12493141 -0.02693575 4.24995912 -0.04636628 6.375 -0.0625 C7.55835938 -0.07410156 8.74171875 -0.08570313 9.9609375 -0.09765625 C13 0 13 0 15 1 C15 2.65 15 4.3 15 6 C13 4.625 13 4.625 11 3 C11 2.34 11 1.68 11 1 C7.37 1 3.74 1 0 1 C0 0.67 0 0.34 0 0 Z " fill="#696969" transform="translate(264,41)"/>
<path d="M0 0 C1.4370809 -0.05422947 2.87475462 -0.09289723 4.3125 -0.125 C5.11300781 -0.14820313 5.91351563 -0.17140625 6.73828125 -0.1953125 C9 0 9 0 12 2 C11.67 3.32 11.34 4.64 11 6 C10.34 4.68 9.68 3.36 9 2 C7.329375 2.061875 7.329375 2.061875 5.625 2.125 C2 2 2 2 0 0 Z " fill="#8D8D8D" transform="translate(350,15)"/>
<path d="M0 0 C4.8333472 -0.08333357 9.23692563 0.04738513 14 1 C14 1.66 14 2.32 14 3 C4.58997722 3.3690205 4.58997722 3.3690205 0 1 C0 0.67 0 0.34 0 0 Z " fill="#9C9C9C" transform="translate(414,8)"/>
<path d="M0 0 C0.70125 0.309375 1.4025 0.61875 2.125 0.9375 C5.08936657 2.03302678 7.87698108 2.56422992 11 3 C11 3.66 11 4.32 11 5 C6.74938644 6.41687119 4.28148375 5.19320039 0 4 C0 2.68 0 1.36 0 0 Z " fill="#727272" transform="translate(51,43)"/>
<path d="M0 0 C0.66 0 1.32 0 2 0 C1.67 0.99 1.34 1.98 1 3 C0.67 2.01 0.34 1.02 0 0 Z M-9 2 C-6.69 2 -4.38 2 -2 2 C-2 2.99 -2 3.98 -2 5 C-3.98 5 -5.96 5 -8 5 C-8.33 4.01 -8.66 3.02 -9 2 Z " fill="#686665" transform="translate(226,43)"/>
<path d="M0 0 C1.625 1.6875 1.625 1.6875 3 4 C2.1875 6.75 2.1875 6.75 1 9 C0.01 8.34 -0.98 7.68 -2 7 C-2.3125 4.5 -2.3125 4.5 -2 2 C-1.34 1.34 -0.68 0.68 0 0 Z " fill="#6F6F6F" transform="translate(345,32)"/>
<path d="M0 0 C2.31 0 4.62 0 7 0 C7 1.65 7 3.3 7 5 C5.02 5 3.04 5 1 5 C1.99 4.67 2.98 4.34 4 4 C4 3.34 4 2.68 4 2 C2.68 2 1.36 2 0 2 C0 1.34 0 0.68 0 0 Z " fill="#6B6B6B" transform="translate(247,27)"/>
<path d="M0 0 C1.32 0.33 2.64 0.66 4 1 C4 2.32 4 3.64 4 5 C1.36 5 -1.28 5 -4 5 C-3.01 4.34 -2.02 3.68 -1 3 C-0.67 2.01 -0.34 1.02 0 0 Z " fill="#919191" transform="translate(420,28)"/>
<path d="M0 0 C1.98 0 3.96 0 6 0 C6 0.99 6 1.98 6 3 C4.35 3.66 2.7 4.32 1 5 C1 4.34 1 3.68 1 3 C0.34 2.67 -0.32 2.34 -1 2 C-0.67 1.34 -0.34 0.68 0 0 Z " fill="#838383" transform="translate(470,29)"/>
<path d="M0 0 C3.24208567 0.35049575 4.61527704 0.56221181 6.8125 3.0625 C7.204375 3.701875 7.59625 4.34125 8 5 C6.68 5.33 5.36 5.66 4 6 C4 5.01 4 4.02 4 3 C2.35 2.67 0.7 2.34 -1 2 C-0.67 1.34 -0.34 0.68 0 0 Z " fill="#6D6D6D" transform="translate(300,20)"/>
<path d="M0 0 C0.33 0.66 0.66 1.32 1 2 C-2.63 2 -6.26 2 -10 2 C-9.67 1.34 -9.34 0.68 -9 0 C-5.7121636 -0.97746487 -3.22506556 -1.26699004 0 0 Z " fill="#292929" transform="translate(285,53)"/>
<path d="M0 0 C3.63 0 7.26 0 11 0 C9.68 0.33 8.36 0.66 7 1 C7 1.66 7 2.32 7 3 C4.69 2.67 2.38 2.34 0 2 C0 1.34 0 0.68 0 0 Z " fill="#3C3C3C" transform="translate(253,41)"/>
<path d="M0 0 C0.99 0 1.98 0 3 0 C3 0.66 3 1.32 3 2 C3.99 2.33 4.98 2.66 6 3 C6 3.99 6 4.98 6 6 C3.03 5.505 3.03 5.505 0 5 C0 3.35 0 1.7 0 0 Z " fill="#A2A2A2" transform="translate(354,27)"/>
<path d="M0 0 C3.96 0 7.92 0 12 0 C12 0.66 12 1.32 12 2 C9.36 1.67 6.72 1.34 4 1 C4 1.66 4 2.32 4 3 C3.01 3 2.02 3 1 3 C0.67 2.01 0.34 1.02 0 0 Z " fill="#898786" transform="translate(257,50)"/>
<path d="M0 0 C1.32 0.33 2.64 0.66 4 1 C3.67 1.99 3.34 2.98 3 4 C0.23735711 4.59732819 -2.16032769 5 -5 5 C-3.625 3.5 -3.625 3.5 -2 2 C-1.34 2 -0.68 2 0 2 C0 1.34 0 0.68 0 0 Z " fill="#868686" transform="translate(341,39)"/>
<path d="M0 0 C1.32 0.33 2.64 0.66 4 1 C4 2.65 4 4.3 4 6 C2.68 6.33 1.36 6.66 0 7 C0 4.69 0 2.38 0 0 Z " fill="#C5C5C5" transform="translate(289,26)"/>
<path d="M0 0 C0.66 0.33 1.32 0.66 2 1 C0.19587357 4.26460973 -0.83394693 5.88929795 -4 8 C-5.32 7.34 -6.64 6.68 -8 6 C-7.236875 5.7525 -6.47375 5.505 -5.6875 5.25 C-2.7635955 3.89004442 -1.69995644 2.68414174 0 0 Z " fill="#838383" transform="translate(331,48)"/>
<path d="M0 0 C0.33 0 0.66 0 1 0 C1 1.98 1 3.96 1 6 C-0.32 6.33 -1.64 6.66 -3 7 C-3.33 6.34 -3.66 5.68 -4 5 C-3.67 4.01 -3.34 3.02 -3 2 C-2.34 2 -1.68 2 -1 2 C-0.67 1.34 -0.34 0.68 0 0 Z " fill="#686868" transform="translate(125,45)"/>
<path d="M0 0 C2.31 0 4.62 0 7 0 C7 0.99 7 1.98 7 3 C4.69 3 2.38 3 0 3 C0 2.01 0 1.02 0 0 Z " fill="#F8F8F8" transform="translate(73,28)"/>
<path d="M0 0 C2.375 0.3125 2.375 0.3125 5 1 C5.66 1.99 6.32 2.98 7 4 C4.69 4 2.38 4 0 4 C0 2.68 0 1.36 0 0 Z " fill="#8E8E8E" transform="translate(307,37)"/>
<path d="M0 0 C1.32 0 2.64 0 4 0 C4 0.99 4 1.98 4 3 C3.34 3 2.68 3 2 3 C2 4.32 2 5.64 2 7 C1.34 7 0.68 7 0 7 C0 4.69 0 2.38 0 0 Z " fill="#4C4C4C" transform="translate(291,34)"/>
<path d="M0 0 C1.32 0 2.64 0 4 0 C4 0.66 4 1.32 4 2 C4.66 2 5.32 2 6 2 C5.67 3.32 5.34 4.64 5 6 C3.68 5.34 2.36 4.68 1 4 C1.33 3.34 1.66 2.68 2 2 C1.34 1.34 0.68 0.68 0 0 Z " fill="#191919" transform="translate(208,25)"/>
<path d="M0 0 C-0.33 0.99 -0.66 1.98 -1 3 C-2.65 3.33 -4.3 3.66 -6 4 C-6 2.68 -6 1.36 -6 0 C-3.50907189 -1.24546405 -2.58919267 -0.7767578 0 0 Z " fill="#959595" transform="translate(137,22)"/>
<path d="M0 0 C0.99 0.495 0.99 0.495 2 1 C2.73075648 3.3140622 3.40138258 5.64828869 4 8 C2.68 8 1.36 8 0 8 C0 5.36 0 2.72 0 0 Z " fill="#4D4D4D" transform="translate(291,17)"/>
<path d="M0 0 C1.32 0 2.64 0 4 0 C4 0.99 4 1.98 4 3 C0.04 3 -3.92 3 -8 3 C-8 2.67 -8 2.34 -8 2 C-5.36 2 -2.72 2 0 2 C0 1.34 0 0.68 0 0 Z " fill="#8A8A87" transform="translate(265,6)"/>
<path d="M0 0 C0 0.66 0 1.32 0 2 C-3.465 3.485 -3.465 3.485 -7 5 C-6.625 3.0625 -6.625 3.0625 -6 1 C-4 0 -4 0 0 0 Z " fill="#4E4E4E" transform="translate(336,44)"/>
<path d="M0 0 C1.98 0 3.96 0 6 0 C4.875 2 4.875 2 3 4 C-0.1875 4.25 -0.1875 4.25 -3 4 C-2.01 3.67 -1.02 3.34 0 3 C0 2.01 0 1.02 0 0 Z " fill="#969696" transform="translate(436,43)"/>
<path d="M0 0 C1.98 0 3.96 0 6 0 C6 0.99 6 1.98 6 3 C4.02 3 2.04 3 0 3 C0 2.01 0 1.02 0 0 Z " fill="#535353" transform="translate(318,36)"/>
<path d="M0 0 C2.97 0.495 2.97 0.495 6 1 C6 1.66 6 2.32 6 3 C4.68 3 3.36 3 2 3 C2 3.99 2 4.98 2 6 C1.34 6 0.68 6 0 6 C0 4.02 0 2.04 0 0 Z " fill="#CECECE" transform="translate(65,28)"/>
<path d="M0 0 C1.98 0 3.96 0 6 0 C6 0.99 6 1.98 6 3 C3.69 3 1.38 3 -1 3 C-0.67 2.01 -0.34 1.02 0 0 Z " fill="#686264" transform="translate(218,11)"/>
<path d="M0 0 C0.99 0.33 1.98 0.66 3 1 C2.67 1.99 2.34 2.98 2 4 C2.99 4.33 3.98 4.66 5 5 C5 5.66 5 6.32 5 7 C2.13275314 6.42655063 1.1385485 6.1385485 -1 4 C-0.625 1.875 -0.625 1.875 0 0 Z " fill="#787475" transform="translate(337,3)"/>
<path d="M0 0 C1.1725131 0.95117134 2.33787015 1.91117009 3.5 2.875 C4.47453125 3.67550781 4.47453125 3.67550781 5.46875 4.4921875 C5.9740625 4.98976563 6.479375 5.48734375 7 6 C7 6.66 7 7.32 7 8 C6.34 8 5.68 8 5 8 C4.67 7.34 4.34 6.68 4 6 C3.01 5.67 2.02 5.34 1 5 C0.67 3.35 0.34 1.7 0 0 Z " fill="#4F4F4F" transform="translate(273,45)"/>
<path d="M0 0 C2.97 0.495 2.97 0.495 6 1 C6 1.99 6 2.98 6 4 C4.35 4 2.7 4 1 4 C0.67 2.68 0.34 1.36 0 0 Z " fill="#656565" transform="translate(208,42)"/>
<path d="M0 0 C0 1.65 0 3.3 0 5 C-0.99 4.34 -1.98 3.68 -3 3 C-4.9896995 2.60986284 -6.99019869 2.26797351 -9 2 C-9 1.67 -9 1.34 -9 1 C-5.94152152 0.45627049 -3.11227195 0 0 0 Z " fill="#585858" transform="translate(281,37)"/>
<path d="M0 0 C1.65 0 3.3 0 5 0 C5 1.32 5 2.64 5 4 C3.68 4.33 2.36 4.66 1 5 C0.67 3.35 0.34 1.7 0 0 Z " fill="#232323" transform="translate(220,27)"/>
<path d="M0 0 C2.97 0 5.94 0 9 0 C8.01 0.33 7.02 0.66 6 1 C6 1.99 6 2.98 6 4 C5.34 4 4.68 4 4 4 C4 3.34 4 2.68 4 2 C2.68 1.67 1.36 1.34 0 1 C0 0.67 0 0.34 0 0 Z " fill="#1B1B1B" transform="translate(268,21)"/>
<path d="M0 0 C1.65 0 3.3 0 5 0 C5 0.99 5 1.98 5 3 C3.02 3.33 1.04 3.66 -1 4 C-0.67 2.68 -0.34 1.36 0 0 Z " fill="#6E6B6C" transform="translate(209,13)"/>
<path d="M0 0 C0 3.57575896 -1.08840607 5.05295935 -3 8 C-4.32 7.67 -5.64 7.34 -7 7 C-4.69 4.69 -2.38 2.38 0 0 Z " fill="#6A6A6A" transform="translate(281,9)"/>
<path d="M0 0 C1.98 0 3.96 0 6 0 C6 0.99 6 1.98 6 3 C4.02 3 2.04 3 0 3 C0 2.01 0 1.02 0 0 Z " fill="#758A9F" transform="translate(110,7)"/>
<path d="M0 0 C1.32 0 2.64 0 4 0 C4.33 1.32 4.66 2.64 5 4 C3.02 4.99 3.02 4.99 1 6 C0 1.125 0 1.125 0 0 Z " fill="#757575" transform="translate(308,5)"/>
<path d="M0 0 C0.99 0 1.98 0 3 0 C3 1.65 3 3.3 3 5 C1.68 5 0.36 5 -1 5 C-0.67 3.35 -0.34 1.7 0 0 Z " fill="#898989" transform="translate(197,28)"/>
<path d="M0 0 C2.64 0.33 5.28 0.66 8 1 C4.77208445 3.1519437 3.71599191 3.20086443 0 3 C0 2.01 0 1.02 0 0 Z " fill="#949494" transform="translate(293,28)"/>
<path d="M0 0 C0.33 0 0.66 0 1 0 C1 2.64 1 5.28 1 8 C0.34 8 -0.32 8 -1 8 C-1 7.01 -1 6.02 -1 5 C-1.66 5 -2.32 5 -3 5 C-3 4.34 -3 3.68 -3 3 C-2.01 3 -1.02 3 0 3 C0 2.01 0 1.02 0 0 Z " fill="#4C4C4B" transform="translate(231,25)"/>
<path d="M0 0 C2.375 -0.1875 2.375 -0.1875 5 0 C5.66 0.99 6.32 1.98 7 3 C4.36 2.67 1.72 2.34 -1 2 C-0.67 1.34 -0.34 0.68 0 0 Z " fill="#696969" transform="translate(295,26)"/>
<path d="M0 0 C0.33 0.66 0.66 1.32 1 2 C1.99 2.33 2.98 2.66 4 3 C-1.625 5.125 -1.625 5.125 -5 4 C-5 3.34 -5 2.68 -5 2 C-3.35 2 -1.7 2 0 2 C0 1.34 0 0.68 0 0 Z " fill="#858585" transform="translate(295,23)"/>
<path d="M0 0 C0.33 0.99 0.66 1.98 1 3 C1.99 3.33 2.98 3.66 4 4 C0.37 3.67 -3.26 3.34 -7 3 C-7 2.67 -7 2.34 -7 2 C-4.69 1.34 -2.38 0.68 0 0 Z " fill="#6C6C6C" transform="translate(227,21)"/>
<path d="M0 0 C0.99 0 1.98 0 3 0 C3.309375 0.78375 3.61875 1.5675 3.9375 2.375 C4.92875038 4.92330128 4.92875038 4.92330128 6 7 C3.53199953 5.84826645 1.95216435 4.95216435 0 3 C0 2.01 0 1.02 0 0 Z " fill="#848484" transform="translate(325,19)"/>
</svg>
